<?xml version="1.0" encoding="UTF-8" standalone="no"?>
<!-- Created with Inkscape (http://www.inkscape.org/) -->

<svg
   xmlns:dc="http://purl.org/dc/elements/1.1/"
   xmlns:cc="http://creativecommons.org/ns#"
   xmlns:rdf="http://www.w3.org/1999/02/22-rdf-syntax-ns#"
   xmlns:svg="http://www.w3.org/2000/svg"
   xmlns="http://www.w3.org/2000/svg"
   xmlns:sodipodi="http://sodipodi.sourceforge.net/DTD/sodipodi-0.dtd"
   xmlns:inkscape="http://www.inkscape.org/namespaces/inkscape"
   width="586.70111"
   height="244.54813"
   id="svg4206"
   version="1.1"
   inkscape:version="0.48.4 r9939"
   sodipodi:docname="New document 4">
  <defs
     id="defs4208">
    <linearGradient
       id="linearGradient3261"
       spreadMethod="pad"
       gradientTransform="matrix(0,39.836914,39.836914,0,224.53174,386.34473)"
       gradientUnits="userSpaceOnUse"
       y2="0"
       x2="1"
       y1="0"
       x1="0">
      <stop
         id="stop3263"
         offset="0"
         style="stop-opacity:1;stop-color:#3d3c3c" />
      <stop
         id="stop3265"
         offset="1"
         style="stop-opacity:1;stop-color:#231f20" />
    </linearGradient>
    <linearGradient
       id="linearGradient3241"
       spreadMethod="pad"
       gradientTransform="matrix(0,39.424805,39.424805,0,300.74951,386.34473)"
       gradientUnits="userSpaceOnUse"
       y2="0"
       x2="1"
       y1="0"
       x1="0">
      <stop
         id="stop3243"
         offset="0"
         style="stop-opacity:1;stop-color:#d5d5d2" />
      <stop
         id="stop3245"
         offset="1"
         style="stop-opacity:1;stop-color:#ffffff" />
    </linearGradient>
    <clipPath
       id="clipPath3209"
       clipPathUnits="userSpaceOnUse">
      <path
         inkscape:connector-curvature="0"
         id="path3211"
         d="M 0,560 600,560 600,0 0,0 0,560 z" />
    </clipPath>
    <clipPath
       id="clipPath3217"
       clipPathUnits="userSpaceOnUse">
      <path
         inkscape:connector-curvature="0"
         id="path3219"
         d="m 263.656,425.149 74.189,0 0,-39.425 -74.189,0 0,39.425 z" />
    </clipPath>
    <linearGradient
       id="linearGradient3197"
       spreadMethod="pad"
       gradientTransform="matrix(0,60.767578,-60.767578,0,300.74902,375.22363)"
       gradientUnits="userSpaceOnUse"
       y2="0"
       x2="1"
       y1="0"
       x1="0">
      <stop
         id="stop3199"
         offset="0"
         style="stop-opacity:1;stop-color:#6d0d13" />
      <stop
         id="stop3201"
         offset="1"
         style="stop-opacity:1;stop-color:#cd332d" />
    </linearGradient>
    <clipPath
       id="clipPath3149"
       clipPathUnits="userSpaceOnUse">
      <path
         inkscape:connector-curvature="0"
         id="path3151"
         d="M 0,560 600,560 600,0 0,0 0,560 z" />
    </clipPath>
    <clipPath
       id="clipPath3157"
       clipPathUnits="userSpaceOnUse">
      <path
         inkscape:connector-curvature="0"
         id="path3159"
         d="m 196.58,425.541 55.872,0 0,-39.837 -55.872,0 0,39.837 z" />
    </clipPath>
    <clipPath
       id="clipPath3173"
       clipPathUnits="userSpaceOnUse">
      <path
         inkscape:connector-curvature="0"
         id="path3175"
         d="m 257.156,435.169 87.185,0 0,-60.767 -87.185,0 0,60.767 z" />
    </clipPath>
  </defs>
  <sodipodi:namedview
     id="base"
     pagecolor="#ffffff"
     bordercolor="#666666"
     borderopacity="1.0"
     inkscape:pageopacity="0.0"
     inkscape:pageshadow="2"
     inkscape:zoom="1"
     inkscape:cx="183.35055"
     inkscape:cy="177.42943"
     inkscape:document-units="px"
     inkscape:current-layer="layer1"
     showgrid="false"
     fit-margin-top="0"
     fit-margin-left="0"
     fit-margin-right="0"
     fit-margin-bottom="0"
     inkscape:window-width="1280"
     inkscape:window-height="968"
     inkscape:window-x="-4"
     inkscape:window-y="-4"
     inkscape:window-maximized="1" />
  <metadata
     id="metadata4211">
    <rdf:RDF>
      <cc:Work
         rdf:about="">
        <dc:format>image/svg+xml</dc:format>
        <dc:type
           rdf:resource="http://purl.org/dc/dcmitype/StillImage" />
        <dc:title></dc:title>
      </cc:Work>
    </rdf:RDF>
  </metadata>
  <g
     inkscape:label="Layer 1"
     inkscape:groupmode="layer"
     id="layer1"
     transform="translate(-191.64945,-465.24349)">
    <g
       transform="matrix(3.9706115,0,0,-3.9706115,-588.89376,2196.3965)"
       id="g3145">
      <g
         clip-path="url(#clipPath3149)"
         id="g3147">
        <g
           id="g3153">
          <g
             id="g3155" />
          <g
             id="g3161">
            <g
               id="g3163"
               clip-path="url(#clipPath3157)"
               style="opacity:0.30000299">
              <g
                 id="g3165"
                 transform="translate(252.4521,386.1084)">
                <path
                   id="path3167"
                   style="fill:#020000;fill-opacity:1;fill-rule:evenodd;stroke:none"
                   d="m 0,0 0,29.385 -5.325,0 0,-22.459 c -1.18,-1.668 -2.297,-2.492 -3.362,-2.492 -0.714,0 -1.132,0.421 -1.25,1.246 -0.064,0.174 -0.064,0.822 -0.064,2.07 l 0,21.635 -5.308,0 0,-23.237 c 0,-2.074 0.179,-3.478 0.473,-4.369 0.531,-1.488 1.714,-2.183 3.428,-2.183 1.942,0 3.964,1.179 6.083,3.609 L -5.325,0 0,0 z m -25.016,8.512 c 0,-2.719 -0.823,-4.078 -2.54,-4.078 -1.716,0 -2.541,1.359 -2.541,4.078 l 0,12.361 c 0,2.719 0.825,4.074 2.541,4.074 1.717,0 2.54,-1.355 2.54,-4.074 l 0,-12.361 z m 5.326,1.002 0,10.291 c 0,3.14 -0.537,5.437 -1.653,6.922 -1.472,2.009 -3.545,3.011 -6.213,3.011 -2.652,0 -4.725,-1.002 -6.197,-3.011 -1.133,-1.485 -1.668,-3.782 -1.668,-6.922 l 0,-10.291 c 0,-3.123 0.535,-5.44 1.668,-6.91 1.472,-2.004 3.545,-3.008 6.197,-3.008 2.668,0 4.741,1.004 6.213,3.008 1.116,1.47 1.653,3.787 1.653,6.91 m -15.78,29.919 -5.969,0 -4.029,-15.486 -4.191,15.486 -6.213,0 c 1.244,-3.658 2.54,-7.329 3.785,-10.988 1.894,-5.5 3.074,-9.646 3.609,-12.474 l 0,-15.971 5.906,0 0,15.971 7.102,23.462 z"
                   inkscape:connector-curvature="0" />
              </g>
            </g>
          </g>
        </g>
        <g
           id="g3169">
          <g
             id="g3171" />
          <g
             id="g3177">
            <g
               id="g3179"
               clip-path="url(#clipPath3173)"
               style="opacity:0.30000299">
              <g
                 id="g3181"
                 transform="translate(344.3408,404.7852)">
                <path
                   id="path3183"
                   style="fill:#020000;fill-opacity:1;fill-rule:evenodd;stroke:none"
                   d="m 0,0 c 0,-6.799 -0.009,-14.005 -1.526,-20.608 -1.067,-4.637 -4.86,-8.057 -9.424,-8.567 -10.811,-1.208 -21.753,-1.214 -32.648,-1.208 -10.894,-0.006 -21.837,0 -32.647,1.208 -4.565,0.51 -8.356,3.93 -9.422,8.567 -1.518,6.603 -1.518,13.809 -1.518,20.608 0,6.799 0.018,14.006 1.536,20.609 1.066,4.637 4.857,8.057 9.421,8.567 10.811,1.208 21.753,1.214 32.648,1.208 10.894,0.006 21.837,0 32.647,-1.208 4.565,-0.51 8.358,-3.93 9.424,-8.567 C 0.009,14.006 0,6.799 0,0"
                   inkscape:connector-curvature="0" />
              </g>
            </g>
          </g>
        </g>
      </g>
    </g>
    <g
       transform="matrix(3.9706115,0,0,-3.9706115,-588.89376,2196.3965)"
       id="g3185">
      <g
         id="g3187">
        <g
           id="g3193">
          <g
             id="g3195">
            <path
               id="path3203"
               style="fill:url(#linearGradient3197);stroke:none"
               d="m 300.761,435.991 c -10.894,0.005 -21.838,0 -32.647,-1.209 l 0,0 c -4.565,-0.51 -8.356,-3.929 -9.423,-8.566 l 0,0 c -1.517,-6.604 -1.535,-13.811 -1.535,-20.609 l 0,0 c 0,-6.799 0,-14.005 1.517,-20.609 l 0,0 c 1.067,-4.636 4.858,-8.056 9.423,-8.567 l 0,0 c 10.81,-1.208 21.753,-1.213 32.647,-1.208 l 0,0 c 10.895,-0.005 21.837,0 32.648,1.208 l 0,0 c 4.564,0.511 8.357,3.931 9.423,8.567 l 0,0 c 1.518,6.604 1.527,13.81 1.527,20.609 l 0,0 c 0,6.798 0.009,14.005 -1.509,20.609 l 0,0 c -1.066,4.637 -4.859,8.056 -9.423,8.566 l 0,0 c -10.175,1.137 -20.466,1.209 -30.724,1.209 l 0,0 c -0.642,0 -1.283,0 -1.924,0"
               inkscape:connector-curvature="0" />
          </g>
        </g>
      </g>
    </g>
    <g
       transform="matrix(3.9706115,0,0,-3.9706115,-588.89376,2196.3965)"
       id="g3205">
      <g
         clip-path="url(#clipPath3209)"
         id="g3207">
        <g
           id="g3213">
          <g
             id="g3215" />
          <g
             id="g3221">
            <g
               id="g3223"
               clip-path="url(#clipPath3217)"
               style="opacity:0.30000299">
              <g
                 id="g3225"
                 transform="translate(337.8447,395.4268)">
                <path
                   id="path3227"
                   style="fill:#020000;fill-opacity:1;fill-rule:evenodd;stroke:none"
                   d="m 0,0 0,0.77 -5.376,0 c 0,-2.114 -0.067,-3.282 -0.115,-3.569 -0.302,-1.41 -1.056,-2.115 -2.355,-2.115 -1.809,0 -2.688,1.344 -2.688,4.035 l 0,5.156 10.534,0 0,6.02 c 0,3.107 -0.525,5.381 -1.629,6.851 -1.475,1.991 -3.573,2.981 -6.217,2.981 -2.688,0 -4.786,-0.99 -6.309,-2.981 -1.119,-1.47 -1.63,-3.744 -1.63,-6.851 l 0,-10.184 c 0,-3.09 0.574,-5.383 1.694,-6.838 1.524,-1.986 3.621,-2.978 6.377,-2.978 2.752,0 4.914,1.041 6.37,3.152 0.642,0.932 1.056,1.988 1.232,3.158 C -0.063,-2.867 0,-1.695 0,0 m -5.267,8.662 -5.267,0 0,2.693 c 0,2.69 0.879,4.032 2.64,4.032 1.745,0 2.627,-1.342 2.627,-4.032 l 0,-2.693 z m -14.618,-9.236 0,11.578 c 0,2.752 -0.179,4.674 -0.529,5.844 -0.706,2.177 -2.114,3.281 -4.212,3.281 -1.937,0 -3.744,-1.059 -5.445,-3.152 l 0,12.746 -5.268,0 0,-39.026 5.268,0 0,2.819 c 1.76,-2.178 3.572,-3.219 5.445,-3.219 2.098,0 3.506,1.105 4.212,3.267 0.35,1.233 0.529,3.17 0.529,5.862 m -5.266,-0.416 c 0,-2.627 -0.774,-3.924 -2.293,-3.924 -0.867,0 -1.745,0.416 -2.627,1.297 l 0,17.722 c 0.882,0.87 1.76,1.282 2.627,1.282 1.519,0 2.293,-1.342 2.293,-3.969 l 0,-12.408 z m -20.02,-8.313 0,3.172 c -2.094,-2.402 -4.084,-3.572 -6.021,-3.572 -1.698,0 -2.868,0.689 -3.395,2.162 -0.287,0.881 -0.464,2.271 -0.464,4.324 l 0,22.994 5.267,0 0,-21.41 c 0,-1.234 0,-1.875 0.049,-2.049 0.129,-0.816 0.529,-1.232 1.233,-1.232 1.058,0 2.162,0.814 3.331,2.465 l 0,22.226 5.271,0 0,-29.08 -5.271,0 z m -10.649,33.532 0,5.494 -18.368,0 0,-5.494 6.197,0 0,-33.532 5.861,0 0,33.532 6.31,0 z"
                   inkscape:connector-curvature="0" />
              </g>
            </g>
          </g>
        </g>
      </g>
    </g>
    <g
       transform="matrix(3.9706115,0,0,-3.9706115,-588.89376,2196.3965)"
       id="g3229">
      <g
         id="g3231">
        <g
           id="g3237">
          <g
             id="g3239">
            <path
               id="path3247"
               style="fill:url(#linearGradient3241);stroke:none"
               d="m 302.503,425.769 0,-39.024 5.268,0 0,2.818 c 1.761,-2.177 3.571,-3.218 5.445,-3.218 l 0,0 c 2.098,0 3.507,1.105 4.211,3.268 l 0,0 c 0.352,1.232 0.532,3.17 0.532,5.859 l 0,0 0,11.578 c 0,2.753 -0.18,4.676 -0.532,5.846 l 0,0 c -0.704,2.177 -2.113,3.281 -4.211,3.281 l 0,0 c -1.937,0 -3.744,-1.059 -5.445,-3.153 l 0,0 0,12.745 -5.268,0 z m 5.268,-33.338 0,17.722 c 0.881,0.87 1.761,1.282 2.627,1.282 l 0,0 c 1.52,0 2.293,-1.345 2.293,-3.969 l 0,0 0,-12.408 c 0,-2.627 -0.773,-3.924 -2.293,-3.924 l 0,0 c -0.866,0 -1.746,0.415 -2.627,1.297 m -44.116,33.338 0,-5.492 6.197,0 0,-33.532 5.861,0 0,33.532 6.31,0 0,5.492 -18.368,0 z m 60.033,-12.573 c -1.12,-1.47 -1.629,-3.744 -1.629,-6.851 l 0,0 0,-10.184 c 0,-3.09 0.574,-5.383 1.693,-6.838 l 0,0 c 1.522,-1.986 3.62,-2.978 6.377,-2.978 l 0,0 c 2.752,0 4.913,1.041 6.371,3.152 l 0,0 c 0.64,0.932 1.055,1.989 1.231,3.156 l 0,0 c 0.048,0.527 0.113,1.697 0.113,3.395 l 0,0 0,0.769 -5.376,0 c 0,-2.113 -0.067,-3.283 -0.116,-3.57 l 0,0 c -0.301,-1.408 -1.058,-2.113 -2.355,-2.113 l 0,0 c -1.808,0 -2.69,1.343 -2.69,4.035 l 0,0 0,5.155 10.537,0 0,6.021 c 0,3.107 -0.528,5.381 -1.63,6.851 l 0,0 c -1.476,1.99 -3.573,2.981 -6.217,2.981 l 0,0 c -2.69,0 -4.787,-0.991 -6.309,-2.981 m 3.619,-5.795 c 0,2.689 0.882,4.034 2.642,4.034 l 0,0 c 1.745,0 2.627,-1.345 2.627,-4.034 l 0,0 0,-2.691 -5.269,0 0,2.691 z m -34.636,8.422 0,-22.224 c -1.169,-1.651 -2.273,-2.465 -3.331,-2.465 l 0,0 c -0.705,0 -1.105,0.415 -1.233,1.232 l 0,0 c -0.048,0.172 -0.048,0.814 -0.048,2.049 l 0,0 0,21.408 -5.268,0 0,-22.992 c 0,-2.053 0.176,-3.443 0.465,-4.324 l 0,0 c 0.527,-1.473 1.696,-2.162 3.394,-2.162 l 0,0 c 1.938,0 3.926,1.17 6.021,3.572 l 0,0 0,-3.172 5.272,0 0,29.078 -5.272,0 z"
               inkscape:connector-curvature="0" />
          </g>
        </g>
      </g>
    </g>
    <g
       transform="matrix(3.9706115,0,0,-3.9706115,-588.89376,2196.3965)"
       id="g3249">
      <g
         id="g3251">
        <g
           id="g3257">
          <g
             id="g3259">
            <path
               id="path3267"
               style="fill:url(#linearGradient3261);stroke:none"
               d="M 211.028,426.181 207,410.696 l -4.191,15.485 -6.213,0 c 1.244,-3.656 2.54,-7.328 3.784,-10.987 l 0,0 c 1.894,-5.5 3.075,-9.646 3.61,-12.475 l 0,0 0,-15.97 5.905,0 0,15.97 7.103,23.462 -5.97,0 z m 7.686,-12.706 c -1.132,-1.484 -1.667,-3.781 -1.667,-6.922 l 0,0 0,-10.29 c 0,-3.123 0.535,-5.44 1.667,-6.91 l 0,0 c 1.473,-2.005 3.545,-3.008 6.198,-3.008 l 0,0 c 2.668,0 4.74,1.003 6.213,3.008 l 0,0 c 1.116,1.47 1.652,3.787 1.652,6.91 l 0,0 0,10.29 c 0,3.141 -0.536,5.438 -1.652,6.922 l 0,0 c -1.473,2.01 -3.545,3.013 -6.213,3.013 l 0,0 c -2.653,0 -4.725,-1.003 -6.198,-3.013 m 3.657,-18.214 0,12.361 c 0,2.719 0.824,4.074 2.541,4.074 l 0,0 c 1.717,0 2.54,-1.355 2.54,-4.074 l 0,0 0,-12.361 c 0,-2.719 -0.823,-4.079 -2.54,-4.079 l 0,0 c -1.717,0 -2.541,1.36 -2.541,4.079 m 24.772,20.873 0,-22.46 c -1.18,-1.667 -2.297,-2.492 -3.362,-2.492 l 0,0 c -0.714,0 -1.133,0.422 -1.25,1.247 l 0,0 c -0.064,0.174 -0.064,0.822 -0.064,2.07 l 0,0 0,21.635 -5.308,0 0,-23.236 c 0,-2.075 0.179,-3.479 0.473,-4.37 l 0,0 c 0.531,-1.488 1.714,-2.183 3.428,-2.183 l 0,0 c 1.942,0 3.963,1.18 6.083,3.609 l 0,0 0,-3.205 5.325,0 0,29.385 -5.325,0 z"
               inkscape:connector-curvature="0" />
          </g>
        </g>
      </g>
    </g>
  </g>
</svg>
