<?xml version="1.0" encoding="UTF-8" ?>
<!DOCTYPE svg PUBLIC "-//W3C//DTD SVG 1.1//EN" "http://www.w3.org/Graphics/SVG/1.1/DTD/svg11.dtd">
<svg width="512pt" height="512pt" viewBox="0 0 512 512" version="1.1" xmlns="http://www.w3.org/2000/svg">
<path fill="#003989" d=" M 0.00 0.00 L 512.00 0.00 L 512.00 512.00 L 0.00 512.00 L 0.00 0.00 Z" />
<path fill="#024bc1" d=" M 173.72 45.29 C 201.49 34.80 231.27 29.37 260.99 30.11 C 269.51 30.19 277.98 31.18 286.47 31.86 C 287.82 32.32 289.16 32.84 290.50 33.38 C 292.55 35.82 295.88 35.98 298.57 37.33 C 300.51 38.26 302.34 39.41 304.19 40.52 C 306.58 43.49 310.40 43.32 313.83 43.37 C 316.18 44.79 318.22 46.65 320.50 48.18 C 318.32 48.18 316.15 48.11 313.99 48.31 C 313.57 49.34 313.29 50.41 312.98 51.47 C 314.34 51.61 315.71 51.74 317.08 51.87 C 316.00 53.81 314.99 55.81 313.60 57.55 C 311.57 56.96 309.71 55.91 307.83 54.96 C 306.37 55.43 304.91 55.90 303.46 56.38 C 304.14 56.68 305.50 57.29 306.18 57.60 C 304.80 57.63 303.42 57.66 302.04 57.70 C 303.92 59.47 305.81 61.22 307.69 62.99 C 307.54 63.46 307.25 64.41 307.10 64.88 C 308.15 66.34 309.17 67.83 310.24 69.28 C 312.37 69.87 314.45 70.66 316.39 71.72 C 316.13 72.59 315.60 74.34 315.34 75.21 C 317.10 76.61 318.85 78.04 320.58 79.50 C 320.32 80.07 319.80 81.23 319.54 81.81 C 321.52 82.12 323.51 82.43 325.49 82.83 C 322.18 83.41 319.11 82.33 316.65 80.14 C 317.77 82.02 318.50 84.50 320.92 85.06 C 325.36 86.59 328.26 90.74 332.87 91.91 C 337.01 90.48 341.37 91.95 344.07 95.34 C 340.90 94.27 337.73 93.19 334.43 92.62 C 336.71 95.53 339.49 98.19 340.49 101.88 C 339.76 101.93 338.32 102.02 337.59 102.07 C 337.66 101.16 337.73 100.25 337.81 99.34 C 336.14 96.98 334.47 94.45 331.82 93.10 C 327.14 90.51 322.56 87.71 317.74 85.38 C 316.77 84.28 315.85 83.14 314.73 82.20 C 313.23 81.12 311.45 82.37 309.91 82.61 C 312.06 84.66 314.10 86.85 315.77 89.32 C 318.13 90.83 320.39 92.50 322.50 94.36 C 325.06 94.88 328.11 94.70 329.90 96.96 C 328.55 96.64 327.21 96.29 325.88 95.92 C 322.62 96.05 319.18 96.11 316.50 98.24 C 318.06 99.14 319.63 100.04 321.21 100.93 C 321.38 101.76 321.56 102.59 321.74 103.43 C 321.17 103.62 320.04 104.00 319.48 104.19 C 318.17 106.55 316.86 108.91 315.59 111.29 C 315.51 109.62 315.42 107.96 315.32 106.30 C 313.60 108.71 312.04 111.23 310.51 113.77 C 310.64 114.65 310.78 115.54 310.92 116.42 C 309.28 116.49 307.63 116.55 305.99 116.59 C 305.54 115.20 305.12 113.79 304.54 112.44 C 303.59 112.38 302.64 112.36 301.69 112.38 C 302.34 114.14 302.99 115.90 303.63 117.67 C 304.50 118.03 305.37 118.39 306.25 118.76 C 306.63 119.61 307.01 120.47 307.40 121.33 C 304.97 122.68 303.23 124.85 301.80 127.18 C 303.00 127.93 304.21 128.68 305.42 129.42 C 302.32 128.92 299.18 128.74 296.04 128.84 C 297.58 130.05 299.16 131.20 300.70 132.42 C 297.91 132.59 294.60 132.87 292.57 130.54 C 290.18 128.06 287.40 126.03 284.59 124.07 C 288.98 124.90 293.39 126.26 297.91 125.80 C 300.38 125.54 301.40 123.15 302.32 121.20 C 301.48 120.20 300.65 119.20 299.83 118.20 C 294.61 116.74 289.28 115.69 283.87 115.24 C 283.49 115.55 282.73 116.17 282.35 116.48 C 279.95 114.39 276.86 113.65 273.84 112.98 C 275.05 112.24 276.26 111.49 277.46 110.73 C 271.83 112.05 266.53 114.46 261.49 117.25 C 259.72 118.15 258.39 119.63 257.12 121.10 C 256.03 120.31 254.94 119.51 253.86 118.72 C 254.08 119.33 254.52 120.56 254.74 121.17 C 255.52 121.28 257.08 121.51 257.86 121.62 C 255.75 125.24 251.79 127.53 250.46 131.62 C 249.52 134.07 248.13 136.30 246.51 138.35 C 246.60 138.79 246.79 139.68 246.89 140.12 C 245.08 141.80 243.02 143.22 240.70 144.08 C 214.61 147.76 189.97 160.77 172.44 180.47 C 156.51 198.20 146.47 221.13 144.41 244.89 C 142.61 264.50 146.06 284.56 154.41 302.40 C 153.20 302.21 151.98 302.01 150.77 301.83 C 149.95 303.74 149.22 305.69 148.57 307.66 C 147.43 307.75 146.29 307.85 145.15 307.97 C 144.32 311.22 143.59 314.68 141.46 317.38 C 139.47 319.83 137.16 321.99 134.93 324.23 C 135.81 327.14 137.18 329.96 137.55 333.00 C 137.23 338.81 137.13 344.90 134.16 350.10 C 132.63 352.27 134.03 354.75 134.60 357.00 C 134.08 358.04 133.55 359.07 133.02 360.12 C 133.87 366.69 139.10 371.31 143.57 375.69 C 146.01 377.43 147.44 380.05 148.32 382.86 C 148.99 383.22 149.67 383.60 150.35 383.98 C 149.58 385.51 148.83 387.07 148.09 388.63 C 152.79 391.98 156.26 396.78 161.30 399.68 C 164.25 401.42 166.50 404.58 170.02 405.19 C 174.06 404.89 178.04 403.51 182.13 404.07 C 188.55 404.66 194.26 408.04 200.53 409.24 C 204.43 409.52 208.37 409.21 212.24 408.64 C 216.48 407.94 220.78 408.83 225.04 408.30 C 227.32 410.30 228.82 412.92 230.59 415.32 C 234.93 418.03 240.20 417.01 245.01 416.81 C 247.61 416.45 249.51 418.53 251.53 419.79 C 251.17 424.26 249.60 428.44 247.11 432.14 C 247.90 433.82 249.12 435.25 250.22 436.74 C 250.79 436.91 251.93 437.24 252.51 437.41 C 252.88 437.84 253.62 438.72 253.98 439.16 C 254.64 439.21 255.96 439.32 256.62 439.38 C 259.48 442.54 262.83 445.22 265.75 448.34 C 267.28 449.80 266.64 452.09 266.86 453.97 C 267.82 454.73 268.79 455.50 269.77 456.27 C 265.95 459.02 260.50 459.72 258.33 464.40 C 256.07 467.00 259.48 469.26 261.43 470.59 C 265.64 473.16 269.67 476.13 274.23 478.09 C 278.80 479.29 283.58 478.18 288.18 477.67 C 308.33 474.35 328.35 469.28 346.96 460.73 C 349.53 459.68 348.87 456.30 349.55 454.11 C 358.19 449.05 366.01 442.73 373.78 436.45 C 374.68 434.24 375.56 432.02 376.43 429.80 C 374.95 427.87 373.24 425.88 373.41 423.29 C 374.28 423.28 376.03 423.26 376.91 423.25 C 375.94 421.76 375.02 420.26 374.07 418.78 C 376.71 415.02 377.94 410.46 380.87 406.89 C 385.48 401.09 389.68 394.99 394.01 388.98 C 396.86 384.89 401.76 382.66 404.08 378.15 C 406.46 373.48 409.80 369.24 411.11 364.09 C 412.21 359.55 415.08 355.67 416.07 351.09 C 417.01 347.22 417.37 343.22 416.98 339.25 C 414.47 344.96 409.94 349.25 405.69 353.64 C 402.02 355.42 399.60 359.28 395.22 359.58 C 395.06 357.31 393.17 356.48 391.36 355.78 C 391.17 354.72 390.98 353.66 390.78 352.61 C 389.97 353.60 389.15 354.59 388.33 355.59 C 388.89 354.15 389.53 352.74 389.91 351.24 C 387.86 349.23 385.54 347.50 383.28 345.73 C 381.09 343.91 378.01 343.97 375.70 342.40 C 373.87 340.68 372.99 338.25 371.80 336.10 C 370.45 332.87 366.73 331.91 364.37 329.62 C 362.80 328.68 363.53 326.76 363.43 325.28 C 360.78 322.26 357.25 320.27 354.24 317.67 C 353.15 315.72 353.13 313.39 352.65 311.26 C 354.01 308.95 355.29 306.60 356.50 304.21 C 357.29 305.85 358.03 307.52 358.82 309.17 C 361.59 311.04 364.15 313.25 366.19 315.91 C 367.43 317.77 367.55 320.21 369.01 321.94 C 371.42 324.38 375.06 324.32 378.23 324.76 C 380.05 327.11 382.13 329.31 384.90 330.53 C 386.77 333.48 387.11 336.98 387.60 340.36 C 388.06 344.44 390.62 347.77 392.49 351.29 C 395.39 350.03 397.41 347.58 399.23 345.09 C 401.73 341.67 405.97 339.54 407.23 335.28 C 409.39 329.00 414.35 324.40 418.89 319.80 C 418.99 318.61 419.10 317.42 419.20 316.23 C 421.22 313.64 423.73 311.46 425.61 308.78 C 427.72 304.94 429.92 301.13 431.73 297.14 C 431.31 294.82 430.96 292.50 430.67 290.17 C 431.34 289.44 432.02 288.70 432.70 287.98 C 432.89 285.30 433.18 282.64 433.53 279.99 C 431.87 279.14 430.21 278.30 428.56 277.45 C 426.48 276.94 424.18 276.86 422.38 275.59 C 421.08 274.26 420.73 272.28 419.91 270.67 C 425.00 272.27 428.22 267.63 432.28 265.66 C 436.19 264.01 438.65 260.42 441.97 257.93 C 442.65 256.60 443.31 255.26 443.99 253.93 C 445.32 255.13 446.65 256.33 447.97 257.54 C 448.48 257.40 449.50 257.12 450.01 256.98 C 450.99 257.37 451.97 257.75 452.95 258.14 C 453.52 257.84 454.64 257.24 455.21 256.94 C 454.97 258.57 454.73 260.22 454.51 261.86 C 459.12 262.08 458.26 256.67 458.91 253.65 C 463.29 265.57 465.98 278.79 474.70 288.51 C 476.04 281.10 476.71 273.40 474.98 266.00 C 473.42 259.63 475.91 253.24 475.36 246.83 C 475.04 242.18 474.96 237.51 475.28 232.86 C 475.66 227.54 473.41 222.43 473.79 217.10 C 474.06 212.93 473.85 208.73 472.42 204.76 C 474.37 207.13 476.26 209.60 477.64 212.36 C 485.75 252.23 482.42 294.38 468.65 332.66 C 455.63 368.68 433.33 401.31 404.38 426.40 C 379.51 448.15 349.77 464.29 318.00 473.34 C 270.31 486.98 218.13 484.35 172.08 465.87 C 122.12 445.96 79.74 407.62 55.24 359.71 C 38.61 327.86 29.96 291.93 30.01 256.01 C 29.94 218.35 39.51 180.71 57.66 147.71 C 59.39 144.68 60.77 141.35 63.39 138.96 C 62.85 142.83 61.11 146.26 58.50 149.15 C 60.35 147.90 62.18 146.61 63.98 145.29 C 64.99 145.33 65.99 145.38 67.00 145.42 C 66.79 146.54 66.58 147.66 66.38 148.78 C 67.89 146.36 69.31 143.89 70.75 141.43 C 73.20 142.32 75.73 142.97 78.30 143.40 C 78.47 145.32 78.61 147.24 78.76 149.17 C 77.86 148.10 76.97 147.03 76.08 145.96 C 75.29 147.16 74.50 148.36 73.71 149.57 C 76.48 151.02 79.35 152.30 82.37 153.12 C 82.34 152.70 82.27 151.87 82.24 151.45 C 83.31 150.21 84.37 148.96 85.41 147.69 C 83.44 148.52 81.51 149.42 79.57 150.30 C 80.37 146.59 81.42 142.94 82.47 139.30 C 85.50 137.48 89.87 136.37 89.65 132.01 C 88.00 131.65 86.35 131.30 84.70 130.93 C 82.59 131.21 80.47 131.45 78.35 131.68 C 78.35 131.34 78.35 130.68 78.34 130.35 C 79.49 130.62 80.64 130.89 81.79 131.16 C 84.74 128.60 88.65 128.21 92.33 127.60 C 93.70 130.88 94.94 134.21 96.12 137.56 C 96.90 137.55 97.68 137.54 98.47 137.54 C 99.57 138.09 100.67 138.68 101.85 139.05 C 105.34 137.12 107.01 133.19 108.15 129.57 C 107.16 129.54 105.17 129.47 104.18 129.44 C 104.19 129.08 104.22 128.37 104.24 128.01 C 106.17 128.50 108.08 129.06 109.95 129.74 C 110.12 127.66 110.44 125.59 111.19 123.64 C 111.25 122.29 111.30 120.93 111.35 119.58 C 112.44 119.24 113.53 118.90 114.62 118.56 C 114.92 117.54 115.22 116.52 115.52 115.50 C 118.42 112.99 121.01 110.13 122.88 106.76 C 124.31 105.20 125.72 103.63 127.10 102.04 C 123.81 102.71 120.77 104.17 118.01 106.07 C 117.32 105.59 116.62 105.12 115.93 104.65 C 116.56 104.48 117.82 104.13 118.45 103.96 C 119.09 101.69 119.94 99.35 122.17 98.18 C 128.31 94.26 134.04 88.83 135.59 81.42 C 130.29 85.23 124.10 87.53 118.31 90.45 C 115.87 92.71 113.73 95.32 110.99 97.25 C 110.55 98.36 110.11 99.47 109.67 100.58 C 109.79 99.97 110.03 98.75 110.15 98.14 C 108.57 97.92 106.99 97.70 105.42 97.48 C 102.21 100.68 98.79 103.73 94.67 105.70 C 96.79 101.71 99.53 97.90 103.46 95.51 C 106.26 93.92 108.07 91.25 109.56 88.48 C 111.83 84.30 115.46 81.14 119.24 78.35 C 119.28 77.89 119.36 76.98 119.40 76.52 C 121.29 73.35 125.29 71.55 128.49 69.74 C 133.31 68.76 138.09 67.46 143.01 67.09 C 143.08 67.95 143.21 69.68 143.27 70.54 C 144.88 68.92 146.45 67.27 148.03 65.63 C 148.55 68.24 148.46 70.90 147.67 73.45 C 152.75 71.60 158.21 69.99 162.25 66.23 C 158.74 67.39 155.07 68.10 151.37 67.44 C 152.73 65.65 154.90 65.04 156.99 64.53 C 158.73 64.98 160.42 64.75 161.79 63.50 C 160.35 63.23 158.92 62.96 157.48 62.71 C 163.25 60.21 169.41 58.95 175.33 56.91 C 172.56 56.48 169.74 56.46 166.95 56.68 C 166.72 56.29 166.24 55.51 166.01 55.13 C 164.53 55.76 163.05 56.37 161.56 56.98 C 162.59 54.98 164.22 53.38 166.00 52.11 C 168.08 54.93 171.24 52.77 173.67 51.78 C 176.87 50.23 180.54 49.71 183.45 47.57 C 188.98 43.11 196.90 44.25 202.67 40.23 C 199.15 39.82 195.00 38.36 191.96 40.93 C 188.82 43.50 183.95 42.27 181.42 45.80 C 181.45 45.08 181.53 43.65 181.57 42.94 C 176.84 45.15 173.74 49.51 169.37 52.23 C 169.63 50.91 169.92 49.61 170.22 48.31 C 170.73 48.00 171.75 47.39 172.26 47.08 C 172.56 46.71 173.16 45.97 173.47 45.60 L 173.72 45.29 Z" />
<path fill="#4ec8fc" d=" M 286.47 31.86 C 292.21 31.57 297.59 33.73 303.16 34.73 C 314.63 36.82 325.56 40.99 336.71 44.30 C 356.39 52.04 375.39 61.97 392.03 75.13 C 396.67 78.76 401.56 82.08 406.00 85.97 C 420.70 100.08 434.63 115.18 445.71 132.36 C 449.45 138.35 452.48 144.76 456.34 150.69 C 466.43 170.03 473.87 190.85 477.64 212.36 C 476.26 209.60 474.37 207.13 472.42 204.76 C 473.85 208.73 474.06 212.93 473.79 217.10 C 473.41 222.43 475.66 227.54 475.28 232.86 C 474.96 237.51 475.04 242.18 475.36 246.83 C 475.91 253.24 473.42 259.63 474.98 266.00 C 476.71 273.40 476.04 281.10 474.70 288.51 C 465.98 278.79 463.29 265.57 458.91 253.65 C 458.26 256.67 459.12 262.08 454.51 261.86 C 454.73 260.22 454.97 258.57 455.21 256.94 C 454.64 257.24 453.52 257.84 452.95 258.14 C 451.97 257.75 450.99 257.37 450.01 256.98 C 449.50 257.12 448.48 257.40 447.97 257.54 C 446.65 256.33 445.32 255.13 443.99 253.93 C 443.31 255.26 442.65 256.60 441.97 257.93 C 438.65 260.42 436.19 264.01 432.28 265.66 C 428.22 267.63 425.00 272.27 419.91 270.67 C 420.73 272.28 421.08 274.26 422.38 275.59 C 424.18 276.86 426.48 276.94 428.56 277.45 C 430.21 278.30 431.87 279.14 433.53 279.99 C 433.18 282.64 432.89 285.30 432.70 287.98 C 432.02 288.70 431.34 289.44 430.67 290.17 C 430.96 292.50 431.31 294.82 431.73 297.14 C 429.92 301.13 427.72 304.94 425.61 308.78 C 423.73 311.46 421.22 313.64 419.20 316.23 C 419.10 317.42 418.99 318.61 418.89 319.80 C 414.35 324.40 409.39 329.00 407.23 335.28 C 405.97 339.54 401.73 341.67 399.23 345.09 C 397.41 347.58 395.39 350.03 392.49 351.29 C 390.62 347.77 388.06 344.44 387.60 340.36 C 387.11 336.98 386.77 333.48 384.90 330.53 C 382.13 329.31 380.05 327.11 378.23 324.76 C 375.06 324.32 371.42 324.38 369.01 321.94 C 367.55 320.21 367.43 317.77 366.19 315.91 C 364.15 313.25 361.59 311.04 358.82 309.17 C 358.03 307.52 357.29 305.85 356.50 304.21 C 366.92 282.93 370.27 258.31 366.01 235.00 C 361.16 207.88 345.85 182.74 323.80 166.19 C 308.37 154.15 289.57 146.60 270.21 144.04 C 272.01 140.53 274.18 137.23 276.24 133.86 C 273.86 132.65 271.28 131.94 268.66 131.49 C 267.11 135.66 266.19 140.25 262.71 143.34 C 255.37 142.94 247.99 143.17 240.70 144.08 C 243.02 143.22 245.08 141.80 246.89 140.12 C 246.79 139.68 246.60 138.79 246.51 138.35 C 248.13 136.30 249.52 134.07 250.46 131.62 C 251.79 127.53 255.75 125.24 257.86 121.62 C 257.08 121.51 255.52 121.28 254.74 121.17 C 254.52 120.56 254.08 119.33 253.86 118.72 C 254.94 119.51 256.03 120.31 257.12 121.10 C 258.39 119.63 259.72 118.15 261.49 117.25 C 266.53 114.46 271.83 112.05 277.46 110.73 C 276.26 111.49 275.05 112.24 273.84 112.98 C 276.86 113.65 279.95 114.39 282.35 116.48 C 282.73 116.17 283.49 115.55 283.87 115.24 C 289.28 115.69 294.61 116.74 299.83 118.20 C 300.65 119.20 301.48 120.20 302.32 121.20 C 301.40 123.15 300.38 125.54 297.91 125.80 C 293.39 126.26 288.98 124.90 284.59 124.07 C 287.40 126.03 290.18 128.06 292.57 130.54 C 294.60 132.87 297.91 132.59 300.70 132.42 C 299.16 131.20 297.58 130.05 296.04 128.84 C 299.18 128.74 302.32 128.92 305.42 129.42 C 304.21 128.68 303.00 127.93 301.80 127.18 C 303.23 124.85 304.97 122.68 307.40 121.33 C 307.01 120.47 306.63 119.61 306.25 118.76 C 305.37 118.39 304.50 118.03 303.63 117.67 C 302.99 115.90 302.34 114.14 301.69 112.38 C 302.64 112.36 303.59 112.38 304.54 112.44 C 305.12 113.79 305.54 115.20 305.99 116.59 C 307.63 116.55 309.28 116.49 310.92 116.42 C 310.78 115.54 310.64 114.65 310.51 113.77 C 312.04 111.23 313.60 108.71 315.32 106.30 C 315.42 107.96 315.51 109.62 315.59 111.29 C 316.86 108.91 318.17 106.55 319.48 104.19 C 320.04 104.00 321.17 103.62 321.74 103.43 C 321.56 102.59 321.38 101.76 321.21 100.93 C 319.63 100.04 318.06 99.14 316.50 98.24 C 319.18 96.11 322.62 96.05 325.88 95.92 C 327.21 96.29 328.55 96.64 329.90 96.96 C 328.11 94.70 325.06 94.88 322.50 94.36 C 320.39 92.50 318.13 90.83 315.77 89.32 C 314.10 86.85 312.06 84.66 309.91 82.61 C 311.45 82.37 313.23 81.12 314.73 82.20 C 315.85 83.14 316.77 84.28 317.74 85.38 C 322.56 87.71 327.14 90.51 331.82 93.10 C 334.47 94.45 336.14 96.98 337.81 99.34 C 337.73 100.25 337.66 101.16 337.59 102.07 C 338.32 102.02 339.76 101.93 340.49 101.88 C 339.49 98.19 336.71 95.53 334.43 92.62 C 337.73 93.19 340.90 94.27 344.07 95.34 C 341.37 91.95 337.01 90.48 332.87 91.91 C 328.26 90.74 325.36 86.59 320.92 85.06 C 318.50 84.50 317.77 82.02 316.65 80.14 C 319.11 82.33 322.18 83.41 325.49 82.83 C 323.51 82.43 321.52 82.12 319.54 81.81 C 319.80 81.23 320.32 80.07 320.58 79.50 C 318.85 78.04 317.10 76.61 315.34 75.21 C 315.60 74.34 316.13 72.59 316.39 71.72 C 314.45 70.66 312.37 69.87 310.24 69.28 C 309.17 67.83 308.15 66.34 307.10 64.88 C 307.25 64.41 307.54 63.46 307.69 62.99 C 305.81 61.22 303.92 59.47 302.04 57.70 C 303.42 57.66 304.80 57.63 306.18 57.60 C 305.50 57.29 304.14 56.68 303.46 56.38 C 304.91 55.90 306.37 55.43 307.83 54.96 C 309.71 55.91 311.57 56.96 313.60 57.55 C 314.99 55.81 316.00 53.81 317.08 51.87 C 315.71 51.74 314.34 51.61 312.98 51.47 C 313.29 50.41 313.57 49.34 313.99 48.31 C 316.15 48.11 318.32 48.18 320.50 48.18 C 318.22 46.65 316.18 44.79 313.83 43.37 C 310.40 43.32 306.58 43.49 304.19 40.52 C 302.34 39.41 300.51 38.26 298.57 37.33 C 295.88 35.98 292.55 35.82 290.50 33.38 C 289.16 32.84 287.82 32.32 286.47 31.86 Z" />
<path fill="#4ec8fc" d=" M 292.02 38.59 C 293.93 39.32 294.46 41.09 294.62 42.97 C 295.43 43.05 297.05 43.21 297.86 43.29 C 297.63 43.70 297.18 44.51 296.95 44.91 C 295.92 44.80 294.91 44.69 293.89 44.57 C 293.33 42.56 292.66 40.58 292.02 38.59 Z" />
<path fill="#4ec8fc" d=" M 191.96 40.93 C 195.00 38.36 199.15 39.82 202.67 40.23 C 196.90 44.25 188.98 43.11 183.45 47.57 C 180.54 49.71 176.87 50.23 173.67 51.78 C 171.24 52.77 168.08 54.93 166.00 52.11 C 164.22 53.38 162.59 54.98 161.56 56.98 C 163.05 56.37 164.53 55.76 166.01 55.13 C 166.24 55.51 166.72 56.29 166.95 56.68 C 169.74 56.46 172.56 56.48 175.33 56.91 C 169.41 58.95 163.25 60.21 157.48 62.71 C 158.92 62.96 160.35 63.23 161.79 63.50 C 160.42 64.75 158.73 64.98 156.99 64.53 C 154.90 65.04 152.73 65.65 151.37 67.44 C 155.07 68.10 158.74 67.39 162.25 66.23 C 158.21 69.99 152.75 71.60 147.67 73.45 C 148.46 70.90 148.55 68.24 148.03 65.63 C 146.45 67.27 144.88 68.92 143.27 70.54 C 143.21 69.68 143.08 67.95 143.01 67.09 C 138.09 67.46 133.31 68.76 128.49 69.74 C 138.40 62.49 149.26 56.63 160.33 51.36 C 164.83 49.71 168.74 46.70 173.47 45.60 C 173.16 45.97 172.56 46.71 172.26 47.08 C 171.75 47.39 170.73 48.00 170.22 48.31 C 169.92 49.61 169.63 50.91 169.37 52.23 C 173.74 49.51 176.84 45.15 181.57 42.94 C 181.53 43.65 181.45 45.08 181.42 45.80 C 183.95 42.27 188.82 43.50 191.96 40.93 Z" />
<path fill="#4ec8fc" d=" M 204.44 45.97 C 202.98 42.25 207.01 39.79 210.23 41.19 C 208.66 42.26 207.06 43.27 205.45 44.27 C 205.96 45.43 206.46 46.58 206.97 47.74 C 205.55 47.78 204.13 47.82 202.72 47.85 C 203.15 47.38 204.01 46.44 204.44 45.97 Z" />
<path fill="#2684db" d=" M 300.20 41.40 C 301.59 40.98 302.13 41.46 301.82 42.86 C 300.43 43.28 299.89 42.80 300.20 41.40 Z" />
<path fill="#4ec8fc" d=" M 198.80 45.16 C 199.46 44.01 200.24 42.94 201.14 41.95 C 201.38 43.66 201.57 45.38 201.72 47.11 C 198.85 47.22 196.00 47.55 193.18 48.10 C 193.82 46.98 194.46 45.86 195.09 44.73 C 196.32 44.88 197.56 45.02 198.80 45.16 Z" />
<path fill="#4ec8fc" d=" M 187.63 52.70 C 188.98 49.96 192.42 49.62 195.13 49.73 C 194.54 50.41 193.35 51.78 192.76 52.46 C 196.55 53.47 199.77 50.78 202.97 49.22 C 203.69 49.66 204.41 50.11 205.13 50.56 C 202.51 50.91 199.98 51.76 198.27 53.89 C 201.73 54.63 206.04 55.18 208.78 52.40 C 209.82 53.39 211.52 54.17 211.03 55.90 C 209.38 56.49 207.64 56.60 205.91 56.65 C 206.97 57.84 208.29 58.73 209.79 59.29 C 210.45 58.06 211.29 56.93 212.17 55.84 C 214.95 54.25 218.17 56.09 220.91 56.98 C 220.41 59.86 218.11 61.72 216.08 63.58 C 214.82 63.23 213.57 62.87 212.32 62.52 C 208.65 64.08 204.73 63.28 201.10 62.11 C 197.17 63.42 192.96 63.33 189.01 62.21 C 187.10 61.36 188.30 59.47 188.66 58.07 C 190.30 56.48 191.63 54.62 192.95 52.77 C 192.26 52.55 190.90 52.09 190.22 51.86 C 189.57 52.07 188.28 52.49 187.63 52.70 Z" />
<path fill="#4ec8fc" d=" M 206.40 49.09 C 207.23 47.81 209.98 48.95 208.64 50.36 C 207.78 51.54 205.17 50.51 206.40 49.09 Z" />
<path fill="#4ec8fc" d=" M 176.55 54.29 C 178.15 52.25 180.69 51.61 183.04 50.89 C 184.47 53.70 182.41 56.12 180.96 58.39 C 179.15 57.75 177.38 57.01 175.65 56.20 C 177.85 55.49 180.51 55.42 182.13 53.55 C 180.27 53.80 178.41 54.04 176.55 54.29 Z" />
<path fill="#4ec8fc" d=" M 185.28 54.24 C 188.27 52.66 185.39 57.58 185.28 54.24 Z" />
<path fill="#024bc1" d=" M 191.22 57.26 C 192.40 54.33 195.46 53.36 198.35 53.21 C 197.71 54.70 197.11 56.21 196.60 57.75 C 195.08 58.58 193.58 59.42 192.04 60.20 C 192.56 59.68 193.61 58.64 194.13 58.12 C 193.40 57.90 191.95 57.47 191.22 57.26 Z" />
<path fill="#4ec8fc" d=" M 181.45 59.92 C 183.31 56.44 187.34 55.66 190.82 54.74 C 189.64 55.74 188.44 56.70 187.18 57.60 C 187.24 58.28 187.35 59.64 187.41 60.31 C 186.21 62.36 184.07 63.06 181.84 63.33 C 181.48 62.68 180.78 61.39 180.43 60.75 C 179.64 61.67 178.91 62.65 178.28 63.69 C 175.97 64.58 173.57 65.21 171.11 65.52 C 171.83 66.16 172.55 66.80 173.28 67.44 C 172.02 69.21 170.38 70.63 168.46 71.64 C 168.27 72.17 167.88 73.22 167.69 73.74 C 165.75 74.19 164.33 75.29 164.20 77.37 C 161.76 78.97 159.29 80.57 156.55 81.60 C 154.65 83.12 153.65 85.33 152.59 87.45 C 150.43 90.09 147.98 92.49 145.44 94.76 C 145.31 94.39 145.03 93.65 144.90 93.28 C 144.33 93.40 143.18 93.64 142.61 93.76 C 144.63 90.99 147.18 88.57 148.44 85.31 C 146.59 84.91 145.71 86.55 144.78 87.71 C 142.02 91.55 138.47 94.72 135.25 98.17 C 135.25 97.44 135.23 96.00 135.22 95.28 C 136.29 93.69 137.28 92.05 138.14 90.33 C 135.61 92.05 134.10 94.76 132.13 97.02 C 132.45 93.93 134.03 91.16 135.61 88.55 C 138.04 86.37 140.43 84.15 142.51 81.63 C 141.30 78.99 143.19 77.02 145.79 76.68 C 145.01 78.18 144.21 79.67 143.45 81.19 C 145.81 81.25 147.85 80.06 149.92 79.12 C 149.10 81.29 145.85 81.68 146.05 84.31 C 148.12 83.30 149.64 81.57 150.91 79.70 C 152.28 79.22 153.65 78.75 155.03 78.29 C 158.07 75.07 161.37 72.09 164.97 69.50 C 164.38 68.62 163.79 67.75 163.20 66.87 C 166.25 62.49 171.52 61.01 176.04 58.69 C 177.90 58.73 179.66 59.45 181.45 59.92 Z" />
<path fill="#024bc1" d=" M 158.07 57.87 C 160.34 57.59 162.63 57.49 164.91 57.74 C 164.33 59.94 161.93 59.04 160.35 59.36 C 160.06 59.82 159.48 60.76 159.18 61.22 C 158.81 60.10 158.44 58.99 158.07 57.87 Z" />
<path fill="#4ec8fc" d=" M 293.91 59.05 C 295.90 58.86 298.03 56.00 299.78 58.36 C 299.99 58.94 300.41 60.10 300.63 60.68 C 299.14 60.08 297.67 59.47 296.20 58.85 C 296.82 59.33 298.07 60.31 298.69 60.79 C 296.70 61.17 293.31 62.55 292.82 59.34 C 292.17 60.51 291.77 61.79 291.51 63.10 C 291.02 62.17 290.52 61.26 290.03 60.34 C 288.97 59.69 287.92 59.03 286.88 58.36 C 287.60 58.17 289.05 57.81 289.77 57.63 C 290.28 59.51 292.50 58.90 293.91 59.05 Z" />
<path fill="#4ec8fc" d=" M 201.46 67.00 C 204.06 65.77 206.41 63.77 209.41 63.66 C 209.02 64.34 208.23 65.69 207.84 66.36 C 211.20 65.20 214.68 64.34 218.24 64.10 C 217.13 65.73 215.36 66.65 213.78 67.74 C 214.43 67.72 215.74 67.67 216.39 67.65 C 217.55 66.91 218.77 66.27 220.03 65.70 C 219.27 66.95 218.47 68.17 217.67 69.40 C 219.91 68.08 222.17 66.81 224.45 65.55 C 225.84 67.07 227.44 68.40 229.15 69.57 C 228.47 69.61 227.12 69.69 226.45 69.73 C 227.55 71.17 228.50 72.71 229.26 74.35 C 227.06 74.11 224.87 73.79 222.68 73.50 C 223.64 74.48 224.52 75.59 225.72 76.29 C 227.72 77.54 230.21 75.77 232.18 77.08 C 230.71 78.09 229.28 79.15 227.90 80.29 C 226.91 79.62 225.91 78.96 224.93 78.29 C 224.47 78.80 223.54 79.83 223.08 80.35 C 222.42 80.29 221.08 80.17 220.41 80.12 C 220.81 84.28 218.86 88.03 217.59 91.86 C 217.31 91.83 216.74 91.77 216.46 91.74 C 217.27 90.22 217.61 88.68 216.31 87.32 C 215.80 87.77 214.77 88.69 214.25 89.15 C 214.75 91.30 215.05 93.50 215.26 95.70 C 213.93 94.82 212.61 93.96 211.34 93.02 C 212.54 94.67 211.92 96.64 211.65 98.46 C 210.86 97.37 210.12 96.25 209.44 95.09 C 209.29 96.33 209.14 97.56 208.98 98.80 C 207.74 98.90 206.50 99.00 205.27 99.11 C 204.95 99.63 204.31 100.67 203.99 101.20 C 202.84 100.83 201.90 100.13 201.16 99.08 C 201.90 101.03 202.54 103.02 203.20 105.00 C 202.16 106.28 201.03 107.49 199.56 108.26 C 199.44 106.75 199.34 105.24 199.25 103.73 C 197.73 105.39 195.87 106.80 193.48 106.65 C 193.49 106.02 193.52 104.75 193.53 104.11 C 192.78 104.89 192.04 105.67 191.30 106.45 C 194.18 106.98 196.92 108.05 199.46 109.51 C 193.26 110.84 187.17 113.47 180.72 112.39 C 180.35 111.61 179.98 110.83 179.62 110.05 C 178.76 112.02 176.38 111.80 174.77 112.78 C 173.69 113.58 172.77 114.57 171.81 115.50 C 171.11 115.39 169.70 115.16 169.00 115.05 C 168.66 115.40 167.99 116.09 167.66 116.43 C 167.33 116.28 166.69 115.98 166.36 115.82 C 167.22 114.28 168.10 112.75 169.00 111.24 C 167.81 112.25 166.78 113.84 165.01 113.62 C 162.15 113.67 159.79 115.45 157.28 116.56 C 156.78 117.41 156.28 118.26 155.78 119.11 C 154.76 119.15 153.75 119.19 152.74 119.23 C 151.50 121.33 148.51 121.30 147.48 123.64 C 145.39 125.02 143.14 126.13 140.89 127.19 C 139.80 124.58 138.48 121.65 139.73 118.85 C 141.98 113.22 146.24 108.72 150.22 104.26 C 152.81 101.71 155.10 98.67 158.52 97.15 C 158.62 96.67 158.82 95.71 158.92 95.22 C 162.95 95.48 167.13 94.41 169.91 91.33 C 168.53 91.91 167.15 92.52 165.78 93.12 C 166.11 90.85 166.97 89.10 169.49 89.52 C 169.75 89.13 170.28 88.36 170.55 87.97 C 171.03 89.45 171.67 90.70 172.94 89.07 C 172.80 88.49 172.50 87.34 172.35 86.77 C 177.29 82.58 184.61 80.48 187.08 73.98 C 188.44 72.00 186.28 71.29 184.82 70.67 C 186.42 69.84 187.97 68.88 189.66 68.21 C 190.45 68.70 191.22 69.21 191.98 69.74 C 191.90 69.03 191.74 67.60 191.66 66.89 C 193.58 65.90 195.52 63.36 197.81 64.89 C 199.08 65.49 200.26 66.26 201.46 67.00 Z" />
<path fill="#4ec8fc" d=" M 176.12 65.13 C 177.64 65.70 176.01 67.70 174.87 67.30 C 173.32 66.73 174.95 64.72 176.12 65.13 Z" />
<path fill="#4ec8fc" d=" M 137.85 74.43 C 139.91 71.94 143.19 71.54 146.16 70.92 C 145.35 71.52 144.55 72.11 143.74 72.69 C 143.21 73.62 142.69 74.54 142.18 75.46 C 140.73 75.12 139.29 74.78 137.85 74.43 Z" />
<path fill="#2684db" d=" M 272.50 71.11 C 273.65 70.20 274.38 70.42 274.68 71.77 C 273.52 72.67 272.79 72.46 272.50 71.11 Z" />
<path fill="#2684db" d=" M 279.37 71.07 C 280.66 72.25 282.05 73.45 282.35 75.28 C 281.20 74.86 280.07 74.43 278.94 73.98 C 279.05 73.26 279.26 71.80 279.37 71.07 Z" />
<path fill="#4ec8fc" d=" M 273.22 75.57 C 274.06 74.68 274.93 73.80 275.84 72.99 C 275.30 74.53 274.11 75.63 272.90 76.66 L 272.62 75.12 C 271.09 75.23 269.55 75.32 268.02 75.40 C 269.67 74.55 272.04 73.26 273.22 75.57 Z" />
<path fill="#2684db" d=" M 138.21 76.05 C 139.88 75.10 140.15 77.68 138.65 77.98 C 136.98 78.94 136.70 76.35 138.21 76.05 Z" />
<path fill="#4ec8fc" d=" M 85.83 107.82 C 96.27 96.62 106.88 85.42 119.40 76.52 C 119.36 76.98 119.28 77.89 119.24 78.35 C 115.46 81.14 111.83 84.30 109.56 88.48 C 108.07 91.25 106.26 93.92 103.46 95.51 C 99.53 97.90 96.79 101.71 94.67 105.70 C 98.79 103.73 102.21 100.68 105.42 97.48 C 106.99 97.70 108.57 97.92 110.15 98.14 C 110.03 98.75 109.79 99.97 109.67 100.58 C 110.11 99.47 110.55 98.36 110.99 97.25 C 113.73 95.32 115.87 92.71 118.31 90.45 C 124.10 87.53 130.29 85.23 135.59 81.42 C 134.04 88.83 128.31 94.26 122.17 98.18 C 119.94 99.35 119.09 101.69 118.45 103.96 C 117.82 104.13 116.56 104.48 115.93 104.65 C 116.62 105.12 117.32 105.59 118.01 106.07 C 120.77 104.17 123.81 102.71 127.10 102.04 C 125.72 103.63 124.31 105.20 122.88 106.76 C 121.01 110.13 118.42 112.99 115.52 115.50 C 115.22 116.52 114.92 117.54 114.62 118.56 C 113.53 118.90 112.44 119.24 111.35 119.58 C 111.30 120.93 111.25 122.29 111.19 123.64 C 110.44 125.59 110.12 127.66 109.95 129.74 C 108.08 129.06 106.17 128.50 104.24 128.01 C 104.22 128.37 104.19 129.08 104.18 129.44 C 105.17 129.47 107.16 129.54 108.15 129.57 C 107.01 133.19 105.34 137.12 101.85 139.05 C 100.67 138.68 99.57 138.09 98.47 137.54 C 97.68 137.54 96.90 137.55 96.12 137.56 C 94.94 134.21 93.70 130.88 92.33 127.60 C 88.65 128.21 84.74 128.60 81.79 131.16 C 80.64 130.89 79.49 130.62 78.34 130.35 C 78.35 130.68 78.35 131.34 78.35 131.68 C 80.47 131.45 82.59 131.21 84.70 130.93 C 86.35 131.30 88.00 131.65 89.65 132.01 C 89.87 136.37 85.50 137.48 82.47 139.30 C 81.42 142.94 80.37 146.59 79.57 150.30 C 81.51 149.42 83.44 148.52 85.41 147.69 C 84.37 148.96 83.31 150.21 82.24 151.45 C 82.27 151.87 82.34 152.70 82.37 153.12 C 79.35 152.30 76.48 151.02 73.71 149.57 C 74.50 148.36 75.29 147.16 76.08 145.96 C 76.97 147.03 77.86 148.10 78.76 149.17 C 78.61 147.24 78.47 145.32 78.30 143.40 C 75.73 142.97 73.20 142.32 70.75 141.43 C 69.31 143.89 67.89 146.36 66.38 148.78 C 66.58 147.66 66.79 146.54 67.00 145.42 C 65.99 145.38 64.99 145.33 63.98 145.29 C 62.18 146.61 60.35 147.90 58.50 149.15 C 61.11 146.26 62.85 142.83 63.39 138.96 C 66.09 134.56 68.69 130.01 72.39 126.36 C 73.80 123.84 74.90 121.10 77.01 119.03 C 77.42 119.22 78.24 119.59 78.65 119.78 C 80.63 115.57 82.66 111.28 85.83 107.82 Z" />
<path fill="#4ec8fc" d=" M 133.34 77.24 C 133.80 77.74 133.80 77.74 133.34 77.24 Z" />
<path fill="#4ec8fc" d=" M 298.56 78.04 C 299.23 78.03 300.57 78.01 301.24 78.00 C 301.33 81.25 299.71 84.11 298.48 87.00 C 300.52 91.57 303.63 96.54 309.23 96.80 C 308.79 97.62 308.34 98.43 307.87 99.23 C 306.40 99.27 304.96 98.92 303.52 98.69 C 301.80 96.32 299.53 94.47 297.32 92.61 C 296.92 90.61 296.08 88.76 294.57 87.37 C 294.52 83.66 297.16 81.17 298.56 78.04 Z" />
<path fill="#4ec8fc" d=" M 254.17 82.10 C 255.12 81.48 256.08 80.88 257.04 80.27 C 258.19 80.61 259.34 80.95 260.49 81.30 C 259.15 83.77 256.17 83.79 254.17 82.10 Z" />
<path fill="#2684db" d=" M 137.60 81.20 C 138.37 80.09 140.71 81.16 139.58 82.40 C 138.80 83.51 136.51 82.44 137.60 81.20 Z" />
<path fill="#4ec8fc" d=" M 246.60 85.00 C 247.33 83.76 248.07 82.52 248.82 81.28 C 249.78 82.16 250.75 83.03 251.72 83.91 C 251.88 83.43 252.20 82.48 252.37 82.00 C 254.48 83.57 256.69 85.04 258.66 86.81 C 258.23 90.06 254.76 87.68 254.77 85.61 C 253.34 86.71 252.25 88.15 251.38 89.72 C 250.46 89.53 249.54 89.34 248.63 89.13 C 248.65 88.47 248.71 87.14 248.74 86.47 C 248.21 86.10 247.13 85.37 246.60 85.00 Z" />
<path fill="#2684db" d=" M 313.16 97.15 C 314.07 95.84 316.96 96.99 315.78 98.57 C 314.85 99.89 311.99 98.72 313.16 97.15 Z" />
<path fill="#2684db" d=" M 195.33 101.28 C 196.06 100.11 198.51 101.08 197.22 102.35 C 196.47 103.51 194.03 102.57 195.33 101.28 Z" />
<path fill="#4ec8fc" d=" M 305.08 106.10 C 306.72 105.70 307.25 106.30 306.68 107.90 C 305.04 108.30 304.51 107.70 305.08 106.10 Z" />
<path fill="#2684db" d=" M 219.43 108.12 C 222.36 106.49 219.68 111.44 219.43 108.12 Z" />
<path fill="#4ec8fc" d=" M 184.62 121.89 C 186.66 120.75 188.78 119.76 190.96 118.92 C 190.98 120.74 190.59 122.39 188.54 122.67 C 188.76 123.47 188.99 124.28 189.23 125.08 C 189.70 124.80 190.62 124.24 191.08 123.95 C 193.70 125.62 196.70 126.43 199.69 127.13 C 199.31 128.40 198.94 129.67 198.57 130.94 C 194.96 133.29 190.74 133.96 186.50 133.79 C 186.20 131.07 184.68 128.94 181.87 128.47 C 182.35 128.28 183.33 127.91 183.82 127.72 C 184.51 126.64 185.20 125.56 185.91 124.49 C 185.48 123.62 185.05 122.75 184.62 121.89 Z" />
<path fill="#4ec8fc" d=" M 91.21 138.38 C 90.96 136.15 91.12 133.92 91.69 131.76 C 92.53 133.79 93.55 136.93 91.21 138.38 Z" />
<path fill="#024bc1" d=" M 262.71 143.34 C 266.19 140.25 267.11 135.66 268.66 131.49 C 271.28 131.94 273.86 132.65 276.24 133.86 C 274.18 137.23 272.01 140.53 270.21 144.04 C 267.71 143.73 265.21 143.50 262.71 143.34 Z" />
<path fill="#4ec8fc" d=" M 92.93 144.78 C 94.69 142.18 97.34 140.49 100.19 139.30 C 100.66 139.66 101.60 140.40 102.07 140.76 C 100.14 141.97 96.40 141.99 96.55 144.95 C 96.21 144.99 95.51 145.08 95.16 145.12 C 95.10 146.29 95.05 147.47 94.81 148.62 C 95.51 149.15 97.35 149.26 96.48 150.47 C 94.55 153.86 91.79 156.71 89.67 159.99 C 89.64 159.44 89.56 158.34 89.52 157.78 C 90.15 157.28 91.41 156.26 92.04 155.75 C 91.25 155.49 89.66 154.96 88.87 154.70 C 89.44 154.50 90.59 154.10 91.17 153.91 C 90.59 151.32 89.09 149.11 87.61 146.98 C 88.84 146.13 90.07 145.28 91.30 144.43 C 91.71 144.52 92.52 144.69 92.93 144.78 Z" />
<path fill="#fbfeff" d=" M 172.44 180.47 C 189.97 160.77 214.61 147.76 240.70 144.08 C 247.99 143.17 255.37 142.94 262.71 143.34 C 265.21 143.50 267.71 143.73 270.21 144.04 C 289.57 146.60 308.37 154.15 323.80 166.19 C 345.85 182.74 361.16 207.88 366.01 235.00 C 370.27 258.31 366.92 282.93 356.50 304.21 C 355.29 306.60 354.01 308.95 352.65 311.26 C 340.52 332.43 321.03 349.16 298.57 358.56 C 276.08 367.89 250.52 369.54 227.00 363.23 C 195.46 354.91 168.11 332.02 154.41 302.40 C 146.06 284.56 142.61 264.50 144.41 244.89 C 146.47 221.13 156.51 198.20 172.44 180.47 Z" />
<path fill="#2684db" d=" M 212.37 145.32 C 214.21 146.00 211.84 149.69 210.22 148.54 C 209.32 147.15 211.11 145.61 212.37 145.32 Z" />
<path fill="#4ec8fc" d=" M 232.17 162.31 C 236.68 161.58 241.15 160.43 245.74 160.36 C 243.07 163.16 239.67 165.05 235.87 165.80 C 234.70 164.69 233.53 163.59 232.36 162.49 L 232.17 162.31 Z" />
<path fill="#024bc1" d=" M 245.74 160.36 C 245.89 160.23 246.19 159.97 246.34 159.84 C 247.09 164.72 245.31 170.79 249.96 174.13 C 249.51 174.98 249.06 175.82 248.62 176.67 C 247.51 177.04 246.40 177.41 245.30 177.80 C 246.08 178.75 246.87 179.70 247.66 180.66 C 248.61 179.03 249.57 177.41 250.53 175.79 C 250.83 177.31 251.13 178.82 251.43 180.34 C 252.80 178.97 254.15 177.59 255.49 176.20 C 256.62 176.09 257.76 175.99 258.90 175.89 C 259.02 175.21 259.26 173.85 259.37 173.17 C 260.40 173.17 261.43 173.16 262.47 173.15 C 261.50 172.91 260.53 172.67 259.56 172.45 C 259.67 170.05 259.79 167.65 259.91 165.25 C 261.54 164.02 263.13 162.72 264.63 161.32 C 261.22 161.50 257.90 162.28 254.62 163.13 C 255.78 162.06 257.00 161.07 258.17 160.01 L 258.62 159.61 C 264.32 160.27 270.41 159.73 275.71 162.24 C 277.87 162.20 279.98 162.69 282.05 163.29 C 282.04 165.82 282.03 168.36 281.96 170.90 C 279.77 169.76 277.91 168.12 276.12 166.45 C 273.49 170.27 274.32 174.91 275.58 179.06 C 274.49 178.87 272.31 178.50 271.22 178.31 C 271.55 178.93 272.23 180.18 272.56 180.80 C 271.96 181.36 271.36 181.92 270.76 182.49 C 269.80 182.44 268.84 182.41 267.88 182.37 C 267.45 181.83 266.59 180.75 266.17 180.22 C 262.96 182.55 259.46 184.43 256.17 186.64 C 254.50 185.51 252.84 184.37 251.16 183.27 C 250.59 183.79 249.46 184.83 248.90 185.35 C 246.92 184.54 244.98 183.64 243.07 182.69 C 242.83 179.33 243.91 176.18 245.96 173.54 C 243.78 173.85 241.61 174.27 239.46 174.76 C 240.04 178.94 240.62 183.24 239.10 187.30 C 238.25 186.52 237.40 185.73 236.56 184.95 C 235.07 185.46 233.59 185.98 232.12 186.51 C 232.98 188.59 232.98 190.53 230.61 191.39 C 230.42 189.68 230.23 187.97 230.02 186.26 C 228.05 188.51 227.30 191.42 227.15 194.34 C 226.78 194.61 226.03 195.14 225.66 195.41 C 225.70 195.81 225.77 196.60 225.81 196.99 C 225.10 196.93 223.68 196.81 222.97 196.75 C 220.32 199.16 218.03 201.93 215.80 204.74 C 215.08 204.68 213.65 204.55 212.94 204.49 C 213.09 205.28 213.40 206.85 213.55 207.64 C 210.25 208.45 207.88 206.38 205.91 204.04 C 206.27 206.31 206.65 208.58 207.07 210.85 C 204.15 210.02 201.24 209.13 198.34 208.24 C 198.31 209.28 198.27 210.31 198.24 211.35 C 199.88 212.42 202.20 213.04 202.86 215.12 C 203.84 217.67 205.11 220.14 207.25 221.93 C 200.91 224.31 194.41 226.27 188.19 228.95 L 188.14 230.73 C 184.99 229.40 181.62 229.13 178.33 230.10 C 178.79 231.15 179.28 232.20 179.77 233.24 C 179.32 238.76 178.47 244.48 174.64 248.78 C 174.64 252.11 174.35 255.43 173.93 258.73 C 176.48 259.26 179.32 259.04 181.64 260.34 C 183.58 262.96 182.89 267.29 186.10 268.95 C 188.03 268.69 189.70 267.59 191.43 266.76 C 193.29 266.79 195.15 266.85 197.01 266.92 C 200.65 264.79 203.44 261.61 205.90 258.25 C 204.02 255.29 205.34 252.27 207.30 249.79 C 213.34 247.53 219.39 245.30 225.47 243.15 C 225.47 252.58 225.44 262.01 225.49 271.44 C 218.37 270.77 211.29 272.47 204.90 275.55 C 203.65 275.32 202.39 275.08 201.15 274.85 C 199.73 275.56 198.35 276.34 196.85 276.84 C 194.02 275.86 191.34 274.50 188.54 273.43 C 187.48 272.38 186.66 270.83 185.01 270.68 C 182.78 273.29 181.36 276.51 178.93 278.96 C 175.92 281.09 171.43 280.85 169.17 284.12 C 167.63 285.80 167.16 288.08 167.12 290.29 C 158.58 269.01 158.18 244.63 165.90 223.06 C 170.39 210.64 177.45 199.19 186.37 189.47 L 186.77 189.47 C 189.91 189.41 193.10 189.76 196.21 189.21 C 198.05 188.34 197.78 185.85 198.56 184.24 C 198.82 182.26 201.08 181.83 202.44 180.80 C 202.00 179.48 201.56 178.16 201.11 176.85 C 202.30 176.09 203.49 175.33 204.68 174.58 C 204.11 175.87 203.46 177.12 202.93 178.44 C 205.07 178.24 207.20 178.02 209.34 177.84 C 208.70 178.80 208.08 179.77 207.44 180.74 C 207.82 181.13 208.57 181.92 208.95 182.32 C 208.26 183.49 207.57 184.67 206.88 185.85 C 205.94 185.64 205.00 185.43 204.06 185.22 C 204.09 188.22 202.56 190.66 199.87 191.96 C 202.45 192.61 204.91 193.61 207.32 194.73 C 203.66 195.54 200.32 197.29 198.42 200.65 C 200.39 199.91 202.31 199.02 204.37 198.57 C 208.66 198.20 212.96 199.84 217.22 198.83 C 216.51 197.88 215.72 196.98 214.95 196.08 C 216.50 195.30 218.28 194.82 219.55 193.59 C 220.64 192.38 220.02 190.66 220.07 189.23 C 218.76 189.41 217.46 189.60 216.16 189.80 C 215.86 184.13 213.67 178.87 211.87 173.57 C 211.04 173.57 210.20 173.58 209.38 173.60 C 210.31 172.53 211.24 171.44 212.22 170.41 C 218.43 166.68 225.39 164.39 232.36 162.49 C 233.53 163.59 234.70 164.69 235.87 165.80 C 239.67 165.05 243.07 163.16 245.74 160.36 Z" />
<path fill="#4ec8fc" d=" M 246.34 159.84 C 250.28 159.80 254.25 159.31 258.17 160.01 C 257.00 161.07 255.78 162.06 254.62 163.13 C 257.90 162.28 261.22 161.50 264.63 161.32 C 263.13 162.72 261.54 164.02 259.91 165.25 C 259.79 167.65 259.67 170.05 259.56 172.45 C 260.53 172.67 261.50 172.91 262.47 173.15 C 261.43 173.16 260.40 173.17 259.37 173.17 C 259.26 173.85 259.02 175.21 258.90 175.89 C 257.76 175.99 256.62 176.09 255.49 176.20 C 254.15 177.59 252.80 178.97 251.43 180.34 C 251.13 178.82 250.83 177.31 250.53 175.79 C 249.57 177.41 248.61 179.03 247.66 180.66 C 246.87 179.70 246.08 178.75 245.30 177.80 C 246.40 177.41 247.51 177.04 248.62 176.67 C 249.06 175.82 249.51 174.98 249.96 174.13 C 245.31 170.79 247.09 164.72 246.34 159.84 Z" />
<path fill="#4ec8fc" d=" M 282.05 163.29 C 310.87 171.26 335.28 193.76 345.38 221.91 C 341.10 219.53 336.55 217.69 332.38 215.11 C 333.51 214.15 334.64 213.19 335.77 212.24 C 335.21 210.92 334.66 209.59 334.13 208.26 C 334.76 206.98 335.28 205.66 335.73 204.31 C 332.02 205.78 330.14 209.69 326.88 211.88 C 326.40 211.76 325.44 211.52 324.96 211.40 C 324.92 212.66 324.89 213.93 324.87 215.21 C 327.03 215.16 329.78 213.45 331.63 214.68 C 328.64 217.27 325.93 220.16 323.06 222.89 C 322.31 221.30 321.58 219.70 320.84 218.11 C 320.02 217.89 318.37 217.46 317.55 217.25 C 319.35 215.07 321.97 214.04 324.63 213.31 C 321.82 211.54 318.68 212.79 315.93 213.97 C 315.06 213.04 314.20 212.11 313.34 211.19 C 312.07 212.49 310.80 213.79 309.53 215.08 C 309.36 216.88 309.18 218.69 308.99 220.49 C 304.95 222.80 307.23 228.16 304.44 231.47 C 305.22 233.31 305.96 235.17 306.66 237.06 C 308.09 237.65 309.52 238.22 310.97 238.77 C 310.96 239.17 310.93 239.96 310.92 240.36 C 309.08 241.51 307.26 242.69 305.49 243.94 C 308.64 244.92 311.80 244.27 313.97 241.73 L 311.56 241.12 C 312.08 240.61 312.62 240.12 313.16 239.63 C 318.10 240.92 320.20 235.84 323.41 233.34 C 326.88 231.66 331.18 231.65 334.59 233.53 C 337.29 235.05 340.40 235.05 343.39 234.65 C 344.86 233.14 346.47 231.77 348.21 230.57 C 353.68 251.20 352.08 273.70 343.41 293.24 C 342.01 291.90 340.61 290.56 339.18 289.26 C 340.14 291.43 341.18 293.57 342.33 295.66 C 332.81 316.14 315.67 332.85 295.09 342.08 C 272.54 352.36 245.87 353.26 222.69 344.53 C 197.61 335.37 176.83 315.17 167.12 290.29 C 167.16 288.08 167.63 285.80 169.17 284.12 C 171.43 280.85 175.92 281.09 178.93 278.96 C 181.36 276.51 182.78 273.29 185.01 270.68 C 186.66 270.83 187.48 272.38 188.54 273.43 C 191.34 274.50 194.02 275.86 196.85 276.84 C 198.35 276.34 199.73 275.56 201.15 274.85 C 202.39 275.08 203.65 275.32 204.90 275.55 C 211.29 272.47 218.37 270.77 225.49 271.44 C 225.43 290.03 225.48 308.61 225.45 327.20 C 250.66 318.58 275.63 309.25 300.78 300.44 C 300.85 296.07 300.86 291.70 300.85 287.33 C 302.08 287.30 303.32 287.28 304.56 287.25 C 304.90 287.61 305.59 288.33 305.94 288.69 C 311.04 286.85 316.27 288.79 321.44 288.54 C 324.88 287.17 326.73 283.20 330.62 282.44 C 332.46 283.32 334.33 284.16 336.19 285.01 C 337.91 284.15 339.75 283.47 341.28 282.27 C 342.41 280.74 342.53 278.75 342.65 276.92 C 342.61 269.92 344.42 262.57 341.18 255.98 C 341.49 254.53 341.80 253.08 342.12 251.63 C 341.34 252.35 340.57 253.08 339.81 253.81 C 339.21 253.95 338.02 254.25 337.43 254.40 C 335.69 256.75 334.04 259.66 331.00 260.44 C 328.54 260.26 326.14 259.68 323.72 259.27 C 322.43 260.81 321.70 264.13 319.15 263.69 C 316.14 262.71 313.28 261.29 310.12 260.83 C 310.24 260.44 310.47 259.68 310.59 259.29 C 309.49 258.73 308.40 258.16 307.31 257.58 C 306.47 257.72 305.62 257.86 304.79 258.00 C 306.72 255.35 306.93 252.18 306.07 249.08 C 304.99 250.18 303.96 251.32 302.88 252.43 C 303.66 249.91 304.57 247.44 305.69 245.06 C 305.55 244.61 305.25 243.69 305.11 243.24 C 303.68 242.93 302.26 242.62 300.84 242.31 C 300.84 224.31 300.87 206.32 300.82 188.33 C 269.63 199.54 238.43 210.70 207.25 221.93 C 205.11 220.14 203.84 217.67 202.86 215.12 C 202.20 213.04 199.88 212.42 198.24 211.35 C 198.27 210.31 198.31 209.28 198.34 208.24 C 201.24 209.13 204.15 210.02 207.07 210.85 C 206.65 208.58 206.27 206.31 205.91 204.04 C 207.88 206.38 210.25 208.45 213.55 207.64 C 213.40 206.85 213.09 205.28 212.94 204.49 C 213.65 204.55 215.08 204.68 215.80 204.74 C 218.03 201.93 220.32 199.16 222.97 196.75 C 223.68 196.81 225.10 196.93 225.81 196.99 C 225.77 196.60 225.70 195.81 225.66 195.41 C 226.03 195.14 226.78 194.61 227.15 194.34 C 227.30 191.42 228.05 188.51 230.02 186.26 C 230.23 187.97 230.42 189.68 230.61 191.39 C 232.98 190.53 232.98 188.59 232.12 186.51 C 233.59 185.98 235.07 185.46 236.56 184.95 C 237.40 185.73 238.25 186.52 239.10 187.30 C 240.62 183.24 240.04 178.94 239.46 174.76 C 241.61 174.27 243.78 173.85 245.96 173.54 C 243.91 176.18 242.83 179.33 243.07 182.69 C 244.98 183.64 246.92 184.54 248.90 185.35 C 249.46 184.83 250.59 183.79 251.16 183.27 C 252.84 184.37 254.50 185.51 256.17 186.64 C 259.46 184.43 262.96 182.55 266.17 180.22 C 266.59 180.75 267.45 181.83 267.88 182.37 C 268.84 182.41 269.80 182.44 270.76 182.49 C 271.36 181.92 271.96 181.36 272.56 180.80 C 272.23 180.18 271.55 178.93 271.22 178.31 C 272.31 178.50 274.49 178.87 275.58 179.06 C 274.32 174.91 273.49 170.27 276.12 166.45 C 277.91 168.12 279.77 169.76 281.96 170.90 C 282.03 168.36 282.04 165.82 282.05 163.29 Z" />
<path fill="#2684db" d=" M 265.75 165.61 C 269.18 165.06 269.03 168.49 267.85 170.58 C 266.09 169.49 265.92 167.47 265.75 165.61 Z" />
<path fill="#4ec8fc" d=" M 204.84 174.18 C 207.25 172.82 209.65 171.45 212.22 170.41 C 211.24 171.44 210.31 172.53 209.38 173.60 C 210.20 173.58 211.04 173.57 211.87 173.57 C 213.67 178.87 215.86 184.13 216.16 189.80 C 217.46 189.60 218.76 189.41 220.07 189.23 C 220.02 190.66 220.64 192.38 219.55 193.59 C 218.28 194.82 216.50 195.30 214.95 196.08 C 215.72 196.98 216.51 197.88 217.22 198.83 C 212.96 199.84 208.66 198.20 204.37 198.57 C 202.31 199.02 200.39 199.91 198.42 200.65 C 200.32 197.29 203.66 195.54 207.32 194.73 C 204.91 193.61 202.45 192.61 199.87 191.96 C 202.56 190.66 204.09 188.22 204.06 185.22 C 205.00 185.43 205.94 185.64 206.88 185.85 C 207.57 184.67 208.26 183.49 208.95 182.32 C 208.57 181.92 207.82 181.13 207.44 180.74 C 208.08 179.77 208.70 178.80 209.34 177.84 C 207.20 178.02 205.07 178.24 202.93 178.44 C 203.46 177.12 204.11 175.87 204.68 174.58 L 204.84 174.18 Z" />
<path fill="#4ec8fc" d=" M 186.77 189.47 C 190.94 184.64 195.95 180.58 201.11 176.85 C 201.56 178.16 202.00 179.48 202.44 180.80 C 201.08 181.83 198.82 182.26 198.56 184.24 C 197.78 185.85 198.05 188.34 196.21 189.21 C 193.10 189.76 189.91 189.41 186.77 189.47 Z" />
<path fill="#2684db" d=" M 261.33 177.25 C 261.81 177.73 261.81 177.73 261.33 177.25 Z" />
<path fill="#2684db" d=" M 230.43 185.09 C 233.40 183.55 230.58 188.42 230.43 185.09 Z" />
<path fill="#fbfeff" d=" M 207.25 221.93 C 238.43 210.70 269.63 199.54 300.82 188.33 C 300.87 206.32 300.84 224.31 300.84 242.31 C 300.85 251.96 300.83 261.61 300.83 271.26 C 300.83 271.86 300.83 273.06 300.83 273.66 C 300.83 278.21 300.83 282.77 300.85 287.33 C 300.86 291.70 300.85 296.07 300.78 300.44 C 275.63 309.25 250.66 318.58 225.45 327.20 C 225.48 308.61 225.43 290.03 225.49 271.44 C 225.44 262.01 225.47 252.58 225.47 243.15 C 219.39 245.30 213.34 247.53 207.30 249.79 C 200.89 251.98 194.55 254.35 188.17 256.63 C 188.14 247.99 188.17 239.36 188.14 230.73 L 188.19 228.95 C 194.41 226.27 200.91 224.31 207.25 221.93 Z" />
<path fill="#024bc1" d=" M 326.88 211.88 C 330.14 209.69 332.02 205.78 335.73 204.31 C 335.28 205.66 334.76 206.98 334.13 208.26 C 334.66 209.59 335.21 210.92 335.77 212.24 C 334.64 213.19 333.51 214.15 332.38 215.11 C 336.55 217.69 341.10 219.53 345.38 221.91 C 346.68 224.66 347.37 227.65 348.21 230.57 C 346.47 231.77 344.86 233.14 343.39 234.65 C 340.40 235.05 337.29 235.05 334.59 233.53 C 331.18 231.65 326.88 231.66 323.41 233.34 C 320.20 235.84 318.10 240.92 313.16 239.63 C 312.62 240.12 312.08 240.61 311.56 241.12 L 313.97 241.73 C 311.80 244.27 308.64 244.92 305.49 243.94 C 307.26 242.69 309.08 241.51 310.92 240.36 C 310.93 239.96 310.96 239.17 310.97 238.77 C 309.52 238.22 308.09 237.65 306.66 237.06 C 305.96 235.17 305.22 233.31 304.44 231.47 C 307.23 228.16 304.95 222.80 308.99 220.49 C 309.18 218.69 309.36 216.88 309.53 215.08 C 310.80 213.79 312.07 212.49 313.34 211.19 C 314.20 212.11 315.06 213.04 315.93 213.97 C 318.68 212.79 321.82 211.54 324.63 213.31 C 321.97 214.04 319.35 215.07 317.55 217.25 C 318.37 217.46 320.02 217.89 320.84 218.11 C 321.58 219.70 322.31 221.30 323.06 222.89 C 325.93 220.16 328.64 217.27 331.63 214.68 C 329.78 213.45 327.03 215.16 324.87 215.21 C 324.89 213.93 324.92 212.66 324.96 211.40 C 325.44 211.52 326.40 211.76 326.88 211.88 Z" />
<path fill="#4ec8fc" d=" M 178.33 230.10 C 181.62 229.13 184.99 229.40 188.14 230.73 C 188.17 239.36 188.14 247.99 188.17 256.63 C 194.55 254.35 200.89 251.98 207.30 249.79 C 205.34 252.27 204.02 255.29 205.90 258.25 C 203.44 261.61 200.65 264.79 197.01 266.92 C 195.15 266.85 193.29 266.79 191.43 266.76 C 189.70 267.59 188.03 268.69 186.10 268.95 C 182.89 267.29 183.58 262.96 181.64 260.34 C 179.32 259.04 176.48 259.26 173.93 258.73 C 174.35 255.43 174.64 252.11 174.64 248.78 C 178.47 244.48 179.32 238.76 179.77 233.24 C 179.28 232.20 178.79 231.15 178.33 230.10 Z" />
<path fill="#024bc1" d=" M 300.84 242.31 C 302.26 242.62 303.68 242.93 305.11 243.24 C 305.25 243.69 305.55 244.61 305.69 245.06 C 304.57 247.44 303.66 249.91 302.88 252.43 C 303.96 251.32 304.99 250.18 306.07 249.08 C 306.93 252.18 306.72 255.35 304.79 258.00 C 305.62 257.86 306.47 257.72 307.31 257.58 C 308.40 258.16 309.49 258.73 310.59 259.29 C 310.47 259.68 310.24 260.44 310.12 260.83 C 313.28 261.29 316.14 262.71 319.15 263.69 C 321.70 264.13 322.43 260.81 323.72 259.27 C 326.14 259.68 328.54 260.26 331.00 260.44 C 334.04 259.66 335.69 256.75 337.43 254.40 C 338.02 254.25 339.21 253.95 339.81 253.81 C 340.57 253.08 341.34 252.35 342.12 251.63 C 341.80 253.08 341.49 254.53 341.18 255.98 C 344.42 262.57 342.61 269.92 342.65 276.92 C 342.53 278.75 342.41 280.74 341.28 282.27 C 339.75 283.47 337.91 284.15 336.19 285.01 C 334.33 284.16 332.46 283.32 330.62 282.44 C 326.73 283.20 324.88 287.17 321.44 288.54 C 316.27 288.79 311.04 286.85 305.94 288.69 C 305.59 288.33 304.90 287.61 304.56 287.25 C 303.32 287.28 302.08 287.30 300.85 287.33 C 300.83 282.77 300.83 278.21 300.83 273.66 C 303.91 273.44 307.02 272.81 309.48 270.79 C 306.59 270.96 303.71 271.14 300.83 271.26 C 300.83 261.61 300.85 251.96 300.84 242.31 Z" />
<path fill="#2684db" d=" M 222.32 252.16 C 225.23 250.50 222.60 255.48 222.32 252.16 Z" />
<path fill="#4ec8fc" d=" M 214.47 254.69 C 215.45 254.04 216.43 253.39 217.41 252.74 C 217.97 253.79 218.54 254.85 219.11 255.91 C 218.32 256.59 217.83 257.88 216.62 257.85 C 215.87 256.82 215.15 255.76 214.47 254.69 Z" />
<path fill="#2684db" d=" M 209.27 257.10 C 210.92 256.65 211.47 257.22 210.92 258.82 C 209.27 259.27 208.72 258.69 209.27 257.10 Z" />
<path fill="#2684db" d=" M 302.32 261.25 C 302.82 261.70 302.82 261.70 302.32 261.25 Z" />
<path fill="#2684db" d=" M 303.00 263.44 C 304.41 263.03 304.92 263.52 304.53 264.90 C 303.11 265.30 302.60 264.81 303.00 263.44 Z" />
<path fill="#4ec8fc" d=" M 311.34 264.39 C 312.91 264.31 312.41 266.82 311.17 266.97 C 309.62 267.03 310.16 264.58 311.34 264.39 Z" />
<path fill="#4ec8fc" d=" M 334.60 265.60 C 335.72 265.04 336.86 264.51 338.01 264.00 C 337.12 265.97 336.51 268.73 334.03 269.21 C 332.73 269.77 331.53 269.24 331.01 267.98 C 332.61 267.84 333.71 266.84 334.60 265.60 Z" />
<path fill="#024bc1" d=" M 389.33 269.09 C 391.53 267.39 393.52 265.24 396.16 264.22 C 400.07 265.44 402.63 268.87 405.36 271.71 C 406.55 271.74 407.75 271.78 408.94 271.81 C 409.49 272.20 410.58 272.97 411.13 273.36 C 412.54 272.73 413.95 272.09 415.36 271.44 C 416.09 269.65 416.94 267.90 418.00 266.28 C 418.78 266.93 419.58 267.58 420.38 268.23 C 417.28 273.33 417.37 279.90 413.69 284.71 C 412.04 285.70 410.16 286.21 408.36 286.86 C 407.71 283.77 407.86 280.42 406.09 277.68 C 405.85 279.69 405.75 281.73 405.47 283.74 C 402.05 284.03 401.01 279.92 399.80 277.49 C 395.03 276.78 392.11 272.58 389.33 269.09 Z" />
<path fill="#4ec8fc" d=" M 300.83 271.26 C 303.71 271.14 306.59 270.96 309.48 270.79 C 307.02 272.81 303.91 273.44 300.83 273.66 C 300.83 273.06 300.83 271.86 300.83 271.26 Z" />
<path fill="#4ec8fc" d=" M 476.47 292.93 C 477.24 289.26 475.19 284.72 477.84 281.70 C 479.39 284.95 478.07 288.45 477.47 291.76 C 477.22 292.05 476.72 292.64 476.47 292.93 Z" />
<path fill="#2684db" d=" M 339.18 289.26 C 340.61 290.56 342.01 291.90 343.41 293.24 C 343.14 293.84 342.60 295.05 342.33 295.66 C 341.18 293.57 340.14 291.43 339.18 289.26 Z" />
<path fill="#4ec8fc" d=" M 150.77 301.83 C 151.98 302.01 153.20 302.21 154.41 302.40 C 168.11 332.02 195.46 354.91 227.00 363.23 C 250.52 369.54 276.08 367.89 298.57 358.56 C 321.03 349.16 340.52 332.43 352.65 311.26 C 353.13 313.39 353.15 315.72 354.24 317.67 C 357.25 320.27 360.78 322.26 363.43 325.28 C 363.53 326.76 362.80 328.68 364.37 329.62 C 366.73 331.91 370.45 332.87 371.80 336.10 C 372.99 338.25 373.87 340.68 375.70 342.40 C 378.01 343.97 381.09 343.91 383.28 345.73 C 385.54 347.50 387.86 349.23 389.91 351.24 C 389.53 352.74 388.89 354.15 388.33 355.59 C 389.15 354.59 389.97 353.60 390.78 352.61 C 390.98 353.66 391.17 354.72 391.36 355.78 C 393.17 356.48 395.06 357.31 395.22 359.58 C 399.60 359.28 402.02 355.42 405.69 353.64 C 409.94 349.25 414.47 344.96 416.98 339.25 C 417.37 343.22 417.01 347.22 416.07 351.09 C 415.08 355.67 412.21 359.55 411.11 364.09 C 409.80 369.24 406.46 373.48 404.08 378.15 C 401.76 382.66 396.86 384.89 394.01 388.98 C 389.68 394.99 385.48 401.09 380.87 406.89 C 377.94 410.46 376.71 415.02 374.07 418.78 C 375.02 420.26 375.94 421.76 376.91 423.25 C 376.03 423.26 374.28 423.28 373.41 423.29 C 373.24 425.88 374.95 427.87 376.43 429.80 C 375.56 432.02 374.68 434.24 373.78 436.45 C 366.01 442.73 358.19 449.05 349.55 454.11 C 348.87 456.30 349.53 459.68 346.96 460.73 C 328.35 469.28 308.33 474.35 288.18 477.67 C 283.58 478.18 278.80 479.29 274.23 478.09 C 269.67 476.13 265.64 473.16 261.43 470.59 C 259.48 469.26 256.07 467.00 258.33 464.40 C 260.50 459.72 265.95 459.02 269.77 456.27 C 268.79 455.50 267.82 454.73 266.86 453.97 C 266.64 452.09 267.28 449.80 265.75 448.34 C 262.83 445.22 259.48 442.54 256.62 439.38 C 255.96 439.32 254.64 439.21 253.98 439.16 C 253.62 438.72 252.88 437.84 252.51 437.41 C 251.93 437.24 250.79 436.91 250.22 436.74 C 249.12 435.25 247.90 433.82 247.11 432.14 C 249.60 428.44 251.17 424.26 251.53 419.79 C 249.51 418.53 247.61 416.45 245.01 416.81 C 240.20 417.01 234.93 418.03 230.59 415.32 C 228.82 412.92 227.32 410.30 225.04 408.30 C 220.78 408.83 216.48 407.94 212.24 408.64 C 208.37 409.21 204.43 409.52 200.53 409.24 C 194.26 408.04 188.55 404.66 182.13 404.07 C 178.04 403.51 174.06 404.89 170.02 405.19 C 166.50 404.58 164.25 401.42 161.30 399.68 C 156.26 396.78 152.79 391.98 148.09 388.63 C 148.83 387.07 149.58 385.51 150.35 383.98 C 149.67 383.60 148.99 383.22 148.32 382.86 C 147.44 380.05 146.01 377.43 143.57 375.69 C 139.10 371.31 133.87 366.69 133.02 360.12 C 133.55 359.07 134.08 358.04 134.60 357.00 C 134.03 354.75 132.63 352.27 134.16 350.10 C 137.13 344.90 137.23 338.81 137.55 333.00 C 137.18 329.96 135.81 327.14 134.93 324.23 C 137.16 321.99 139.47 319.83 141.46 317.38 C 143.59 314.68 144.32 311.22 145.15 307.97 C 146.29 307.85 147.43 307.75 148.57 307.66 C 149.22 305.69 149.95 303.74 150.77 301.83 Z" />
<path fill="#4ec8fc" d=" M 389.89 429.05 C 394.58 425.97 398.16 421.47 403.08 418.70 C 402.43 423.15 398.40 425.68 395.80 428.97 C 391.95 432.72 389.04 437.48 384.40 440.37 C 380.53 442.79 376.70 445.27 372.65 447.38 C 374.42 443.60 380.51 441.95 379.54 437.18 C 383.34 434.92 386.18 431.43 389.89 429.05 Z" />
</svg>
