<?xml version="1.0" encoding="UTF-8" standalone="no"?>
<!-- Created with Inkscape (http://www.inkscape.org/) -->
<svg id="svg2" xmlns:rdf="http://www.w3.org/1999/02/22-rdf-syntax-ns#" xmlns="http://www.w3.org/2000/svg" height="16" width="16" version="1.1" xmlns:cc="http://creativecommons.org/ns#" xmlns:dc="http://purl.org/dc/elements/1.1/">
 <metadata id="metadata7">
  <rdf:RDF>
   <cc:Work rdf:about="">
    <dc:format>image/svg+xml</dc:format>
    <dc:type rdf:resource="http://purl.org/dc/dcmitype/StillImage"/>
    <dc:title/>
   </cc:Work>
  </rdf:RDF>
 </metadata>
 <g id="layer1" transform="translate(0,-1036.3622)">
  <g id="flowRoot3018" style="letter-spacing:0px;text-anchor:middle;word-spacing:0px;text-align:center;" font-weight="normal" transform="translate(0,1038.3622)" line-height="100%" font-stretch="normal" font-size="14px" font-variant="normal" font-style="normal" font-family="FontAwesome" fill="#FFF">
   <path id="path2996" fill="#FFF" d="m7.5059,7c0-0.54687-0.45313-1-1-1h-4c-0.54687,0-1,0.45313-1,1v3c0,0.54687,0.45313,1,1,1h4c0.54687,0,1-0.45313,1-1v-3m0-6c0-0.54687-0.45313-1-1-1h-4c-0.54687,0-1,0.45313-1,1v3c0,0.54687,0.45313,1,1,1h4c0.54687,0,1-0.45313,1-1v-3m7,6c0-0.54687-0.45312-1-1-1h-4.0001c-0.54687,0-1,0.45313-1,1v3c0,0.54687,0.45313,1,1,1h4c0.54688,0,1-0.45313,1-1v-3m0-6c0-0.54687-0.45312-1-1-1h-4.0001c-0.54687,0-1,0.45313-1,1v3c0,0.54687,0.45313,1,1,1h4c0.54688,0,1-0.45313,1-1v-3"/>
  </g>
 </g>
</svg>
