<?xml version="1.0" encoding="UTF-8" standalone="no"?>
<!-- Created with Inkscape (http://www.inkscape.org/) -->
<svg id="svg2" xmlns:rdf="http://www.w3.org/1999/02/22-rdf-syntax-ns#" xmlns="http://www.w3.org/2000/svg" height="16" width="16" version="1.1" xmlns:cc="http://creativecommons.org/ns#" xmlns:dc="http://purl.org/dc/elements/1.1/">
 <metadata id="metadata7">
  <rdf:RDF>
   <cc:Work rdf:about="">
    <dc:format>image/svg+xml</dc:format>
    <dc:type rdf:resource="http://purl.org/dc/dcmitype/StillImage"/>
    <dc:title/>
   </cc:Work>
  </rdf:RDF>
 </metadata>
 <g id="layer1" transform="translate(0,-1036.3622)">
  <g id="flowRoot3018" style="letter-spacing:0px;text-anchor:middle;word-spacing:0px;text-align:center;" font-weight="normal" transform="translate(0,1038.3622)" line-height="100%" font-stretch="normal" font-size="14px" font-variant="normal" font-style="normal" font-family="FontAwesome" fill="#FFF">
   <path id="path2988" fill="#FFF" d="m13.998,6c0-3.3047-2.6953-6-6-6-1.539,0-3.0312,0.61719-4.1328,1.6562l-1.0156-1.0078c-0.1406-0.14844-0.3594-0.1875-0.5391-0.10938-0.1875,0.07813-0.3125,0.25782-0.3125,0.46094v3.5c0,0.27344,0.22656,0.5,0.5,0.5h3.5c0.2032,0,0.3829-0.125,0.461-0.3125,0.0781-0.1797,0.039-0.3984-0.1094-0.5391l-1.0703-1.0781c0.7266-0.6797,1.6953-1.0703,2.7187-1.0703,2.203,0,4,1.7969,4,4s-1.7969,4-4,4c-1.2422,0-2.3906-0.5625-3.1562-1.5547-0.039063-0.054687-0.10938-0.085937-0.17969-0.09375-0.070312,0-0.14063,0.023437-0.19531,0.070312l-1.0703,1.0781c-0.086,0.0859-0.0938,0.2344-0.0156,0.3359,1.1406,1.3751,2.8281,2.1641,4.6171,2.1641,3.305,0,6-2.6953,6-6m-5-2.25c0-0.14062-0.10938-0.25-0.25-0.25h-0.5c-0.14062,0-0.25,0.10938-0.25,0.25v2.75h-1.75c-0.14062,0-0.25,0.10938-0.25,0.25v0.5c0,0.14062,0.10938,0.25,0.25,0.25h2.5c0.14062,0,0.25-0.10938,0.25-0.25v-3.5"/>
  </g>
 </g>
</svg>
