<?xml version="1.0" encoding="UTF-8" standalone="no"?>
<!-- Created with Inkscape (http://www.inkscape.org/) -->
<svg id="svg2" xmlns:rdf="http://www.w3.org/1999/02/22-rdf-syntax-ns#" xmlns="http://www.w3.org/2000/svg" height="16" width="16" version="1.1" xmlns:cc="http://creativecommons.org/ns#" xmlns:dc="http://purl.org/dc/elements/1.1/">
 <metadata id="metadata7">
  <rdf:RDF>
   <cc:Work rdf:about="">
    <dc:format>image/svg+xml</dc:format>
    <dc:type rdf:resource="http://purl.org/dc/dcmitype/StillImage"/>
    <dc:title/>
   </cc:Work>
  </rdf:RDF>
 </metadata>
 <g id="layer1" transform="translate(0,-1036.3622)">
  <g id="flowRoot3018" style="letter-spacing:0px;text-anchor:middle;word-spacing:0px;text-align:center;" font-weight="normal" transform="translate(0,1038.3622)" line-height="100%" font-stretch="normal" font-size="14px" font-variant="normal" font-style="normal" font-family="FontAwesome" fill="#FFF">
   <path id="path3199" fill="#FFF" d="m10.996,9.75c0,0.14062-0.10938,0.25-0.25,0.25h-5.5c-0.14062,0-0.25-0.10938-0.25-0.25v-0.5c0-0.14062,0.10938-0.25,0.25-0.25h5.5c0.14062,0,0.25,0.10938,0.25,0.25v0.5m0-2c0,0.14062-0.10938,0.25-0.25,0.25h-5.4999c-0.14062,0-0.25-0.10938-0.25-0.25v-0.5c0-0.14062,0.10938-0.25,0.25-0.25h5.5c0.14062,0,0.25,0.10938,0.25,0.25v0.5m2-2.75-4.25,0c-0.414,0-0.7499-0.3359-0.7499-0.75v-4.25h-4.25c-0.41406,0-0.75,0.33594-0.75,0.75v10.5c0,0.41406,0.33594,0.75,0.75,0.75h8.5c0.41406,0,0.75-0.33594,0.75-0.75v-6.25m-0.023-1c-0.071-0.375-0.274-0.7969-0.508-1.0312l-2.4375-2.4375c-0.235-0.23442-0.6569-0.43755-1.0319-0.50786v3.9766h3.9766"/>
  </g>
 </g>
</svg>
