<?xml version="1.0" encoding="UTF-8" standalone="no"?>
<!-- Created with Inkscape (http://www.inkscape.org/) -->
<svg id="svg2" xmlns:rdf="http://www.w3.org/1999/02/22-rdf-syntax-ns#" xmlns="http://www.w3.org/2000/svg" height="16" width="16" version="1.1" xmlns:cc="http://creativecommons.org/ns#" xmlns:dc="http://purl.org/dc/elements/1.1/">
 <metadata id="metadata7">
  <rdf:RDF>
   <cc:Work rdf:about="">
    <dc:format>image/svg+xml</dc:format>
    <dc:type rdf:resource="http://purl.org/dc/dcmitype/StillImage"/>
    <dc:title/>
   </cc:Work>
  </rdf:RDF>
 </metadata>
 <g id="layer1" transform="translate(0,-1036.3622)">
  <g id="flowRoot3018" style="letter-spacing:0px;text-anchor:middle;word-spacing:0px;text-align:center;" font-weight="normal" transform="translate(0,1038.3622)" line-height="100%" font-stretch="normal" font-size="14px" font-variant="normal" font-style="normal" font-family="FontAwesome" fill="#FFF">
   <path id="path2988" fill="#FFF" d="m11.498,6.5c0,0.27344-0.22656,0.5-0.5,0.5h-2v2c0,0.27344-0.22656,0.5-0.5,0.5h-1c-0.27344,0-0.5-0.22656-0.5-0.5v-2h-2c-0.27344,0-0.5-0.22656-0.5-0.5v-1c0-0.27344,0.22656-0.5,0.5-0.5h2v-2c0-0.27344,0.22656-0.5,0.5-0.5h1c0.27344,0,0.5,0.22656,0.5,0.5v2h2c0.27344,0,0.5,0.22656,0.5,0.5v1m2.5-0.5c0-3.3125-2.6875-6-6-6s-6,2.6875-6,6,2.6875,6,6,6,6-2.6875,6-6"/>
  </g>
 </g>
</svg>
