<?xml version="1.0" encoding="UTF-8" standalone="no"?>
<!-- Created with Inkscape (http://www.inkscape.org/) -->
<svg id="svg2" xmlns:rdf="http://www.w3.org/1999/02/22-rdf-syntax-ns#" xmlns="http://www.w3.org/2000/svg" height="16" width="16" version="1.1" xmlns:cc="http://creativecommons.org/ns#" xmlns:dc="http://purl.org/dc/elements/1.1/">
 <metadata id="metadata7">
  <rdf:RDF>
   <cc:Work rdf:about="">
    <dc:format>image/svg+xml</dc:format>
    <dc:type rdf:resource="http://purl.org/dc/dcmitype/StillImage"/>
    <dc:title/>
   </cc:Work>
  </rdf:RDF>
 </metadata>
 <g id="layer1" transform="translate(0,-1036.3622)">
  <g id="flowRoot3018" style="letter-spacing:0px;text-anchor:middle;word-spacing:0px;text-align:center;" font-weight="normal" transform="translate(-1,1038.3622)" line-height="100%" font-stretch="normal" font-size="14px" font-variant="normal" font-style="normal" font-family="FontAwesome" fill="#FFF">
   <path id="path2988" fill="#FFF" d="m11.975,7.7656c0,0.13281-0.05469,0.26563-0.14844,0.35938l-0.70312,0.70312c-0.09375,0.09375-0.22656,0.14844-0.35938,0.14844-0.13281,0-0.25781-0.054688-0.35156-0.14844l-1.415-1.414-1.414,1.414c-0.09375,0.09375-0.21875,0.14844-0.35156,0.14844s-0.26563-0.054688-0.35938-0.14844l-0.7031-0.7031c-0.0937-0.0937-0.1484-0.2266-0.1484-0.3594,0-0.13281,0.054688-0.25781,0.14844-0.35156l1.4141-1.414-1.4141-1.4141c-0.0937-0.0937-0.1484-0.2187-0.1484-0.3515,0-0.13281,0.054688-0.26563,0.14844-0.35938l0.70312-0.70312c0.09375-0.09375,0.22656-0.14844,0.35938-0.14844,0.13281,0,0.25781,0.054688,0.35156,0.14844l1.414,1.414,1.414-1.414c0.09375-0.09375,0.21875-0.14844,0.35156-0.14844s0.26562,0.054688,0.35938,0.14844l0.703,0.7031c0.09375,0.09375,0.14844,0.22656,0.14844,0.35938,0,0.13281-0.05469,0.25781-0.14844,0.35156l-1.414,1.414,1.414,1.4141c0.09375,0.09375,0.14844,0.21875,0.14844,0.35156m3.024-1.7657c0-3.3125-2.6875-6-6-6s-6,2.6875-6,6,2.6875,6,6,6,6-2.6875,6-6"/>
  </g>
 </g>
</svg>
