<?xml version="1.0" encoding="UTF-8" standalone="no"?>
<!-- Created with Inkscape (http://www.inkscape.org/) -->
<svg id="svg2" xmlns:rdf="http://www.w3.org/1999/02/22-rdf-syntax-ns#" xmlns="http://www.w3.org/2000/svg" height="16" width="16" version="1.1" xmlns:cc="http://creativecommons.org/ns#" xmlns:dc="http://purl.org/dc/elements/1.1/">
 <metadata id="metadata7">
  <rdf:RDF>
   <cc:Work rdf:about="">
    <dc:format>image/svg+xml</dc:format>
    <dc:type rdf:resource="http://purl.org/dc/dcmitype/StillImage"/>
    <dc:title/>
   </cc:Work>
  </rdf:RDF>
 </metadata>
 <g id="layer1" transform="translate(0,-1036.3622)">
  <g id="flowRoot3018" style="letter-spacing:0px;text-anchor:middle;word-spacing:0px;text-align:center;" font-weight="normal" transform="translate(0,1038.3622)" line-height="100%" font-stretch="normal" font-size="14px" font-variant="normal" font-style="normal" font-family="FontAwesome" fill="#FFF">
   <path id="path2988" fill="#FFF" d="m10.506,5.5c0,1.9297-1.5703,3.5-3.5,3.5s-3.5-1.5703-3.5-3.5,1.5703-3.5,3.5-3.5,3.5,1.5703,3.5,3.5m4,6.5c0-0.26562-0.10938-0.52344-0.28906-0.70312l-2.68-2.6798c0.633-0.9141,0.969-2.0078,0.969-3.1172,0-3.0391-2.4609-5.5-5.5-5.5s-5.5,2.4609-5.5,5.5,2.4609,5.5,5.5,5.5c1.1094,0,2.2031-0.33594,3.1172-0.96875l2.6797,2.6719c0.179,0.188,0.437,0.297,0.703,0.297,0.54688,0,1-0.45313,1-1"/>
  </g>
 </g>
</svg>
