<?xml version="1.0" encoding="UTF-8" standalone="no"?>
<!-- Created with Inkscape (http://www.inkscape.org/) -->
<svg id="svg2" xmlns:rdf="http://www.w3.org/1999/02/22-rdf-syntax-ns#" xmlns="http://www.w3.org/2000/svg" height="16" width="16" version="1.1" xmlns:cc="http://creativecommons.org/ns#" xmlns:dc="http://purl.org/dc/elements/1.1/">
 <metadata id="metadata7">
  <rdf:RDF>
   <cc:Work rdf:about="">
    <dc:format>image/svg+xml</dc:format>
    <dc:type rdf:resource="http://purl.org/dc/dcmitype/StillImage"/>
    <dc:title/>
   </cc:Work>
  </rdf:RDF>
 </metadata>
 <g id="layer1" transform="translate(0,-1036.3622)">
  <g id="flowRoot3018" style="letter-spacing:0px;text-anchor:middle;word-spacing:0px;text-align:center;" font-weight="normal" transform="translate(-1,1038.3622)" line-height="100%" font-stretch="normal" font-size="14px" font-variant="normal" font-style="normal" font-family="FontAwesome" fill="#FFF">
   <path id="path2988" fill="#FFF" d="m8.9941,4.25c-1.2422,0-2.25,1.0078-2.25,2.25s1.0078,2.25,2.25,2.25,2.25-1.0078,2.25-2.25-1.0078-2.25-2.25-2.25m5.5-3.25h-1.75l-0.39844-1.0625c-0.196-0.51562-0.805-0.9375-1.352-0.9375h-3.9999c-0.5468,0-1.1562,0.42188-1.3515,0.9375l-0.3985,1.0625h-1.75c-1.1016,0-2,0.89844-2,2v7c0,1.1016,0.89844,2,2,2h11c1.1016,0,2-0.89844,2-2v-7c0-1.1016-0.89844-2-2-2m-5.5,9c-1.9297,0-3.5-1.5703-3.5-3.5s1.5703-3.5,3.5-3.5,3.5,1.5703,3.5,3.5-1.5703,3.5-3.5,3.5"/>
  </g>
 </g>
</svg>
