<?xml version="1.0" encoding="UTF-8" standalone="no"?>
<!-- Created with Inkscape (http://www.inkscape.org/) -->
<svg id="svg2" xmlns:rdf="http://www.w3.org/1999/02/22-rdf-syntax-ns#" xmlns="http://www.w3.org/2000/svg" height="16" width="16" version="1.1" xmlns:cc="http://creativecommons.org/ns#" xmlns:dc="http://purl.org/dc/elements/1.1/">
 <metadata id="metadata7">
  <rdf:RDF>
   <cc:Work rdf:about="">
    <dc:format>image/svg+xml</dc:format>
    <dc:type rdf:resource="http://purl.org/dc/dcmitype/StillImage"/>
    <dc:title/>
   </cc:Work>
  </rdf:RDF>
 </metadata>
 <g id="layer1" transform="translate(0,-1036.3622)">
  <g id="flowRoot3018" style="letter-spacing:0px;text-anchor:middle;word-spacing:0px;text-align:center;" font-weight="normal" transform="translate(-1,1038.3622)" line-height="100%" font-stretch="normal" font-size="14px" font-variant="normal" font-style="normal" font-family="FontAwesome" fill="#FFF">
   <path id="path2988" fill="#FFF" d="m8.998,0c-3.3125,0-6,2.6875-6,6s2.6875,6,6,6,6-2.6875,6-6-2.6875-6-6-6m2.1406,4.0703c0.08594-0.054687,0.22656-0.125,0.33594-0.09375,0.08594,0.023437,0.15625,0.054688,0.05469,0.125-0.04687,0.03125-0.11719,0-0.17188,0.015625,0.07031,0.015625,0.17188,0.046875,0.14062,0.11719,0.20312,0.11719-0.0625,0.25781-0.19531,0.24219,0.0625,0.00781-0.13281,0.125-0.13281,0.11719-0.07031,0.039063-0.16406,0.039063-0.21875,0.10938-0.0625,0.085937,0.02344,0.23438-0.09375,0.20312-0.04687,0.10156-0.22656,0.046875-0.30469,0.15625,0.08594,0.09375-0.08594,0.22656-0.17188,0.10938-0.07813,0.03125-0.03906,0.11719-0.11719,0.16406,0.03125,0.046875,0.03906,0.09375-0.01563,0.125,0.01563-0.00781,0.10938,0.070312,0.13281,0.078125-0.01563,0.039063-0.04687,0.070312-0.08594,0.070312,0.03906,0.10156-0.04687,0.21094-0.11719,0.27344-0.07813,0.0625-0.25781,0.125-0.28125,0.14062-0.14062,0.13281-0.23437,0.32813,0.015625,0.38281,0.00781,0,0.00781,0.25781,0.015625,0.26562,0.015625,0.09375,0.054687,0.36719-0.10938,0.26562-0.078125-0.039063-0.125-0.25781-0.14844-0.34375-0.023437-0.09375-0.03125-0.09375-0.09375-0.1875-0.10156,0.11719-0.11719,0.03125-0.20312-0.023437-0.085937-0.046875-0.21094-0.03125-0.25781-0.078125-0.11719,0.085937-0.20312,0.0625-0.22656-0.070312-0.03125,0.0625,0.03125,0.15625,0.023437,0.17969-0.039063,0.078125-0.10938,0.0625-0.17188,0.015625-0.10156-0.078125-0.32031,0.054687-0.4375,0,0.00781,0,0.039063,0.03125,0.0625,0.046875-0.023437,0.09375-0.078125,0.039063-0.125,0.070312-0.054687,0.039063-0.10156,0.11719-0.14844,0.15625,0.10156,0.19531-0.00781,0.38281,0,0.59375,0,0.15625,0.10156,0.42969,0.25,0.51562,0.070312,0.039063,0.30469,0.054687,0.375,0.023437,0.10937-0.046875,0.09375-0.13281,0.13281-0.22656,0.039062-0.10156,0.085938-0.14844,0.20312-0.15625,0.33594-0.015625,0.078125,0.25781,0.039063,0.39844-0.023437,0.10156-0.03125,0.21875-0.046875,0.3125,0.039062,0.015625,0.078125,0.00781,0.11719,0.00781,0-0.03125,0.023437-0.070312,0.023437-0.09375,0.046875,0.078125,0.20312,0.10156,0.25,0.00781,0.054687,0.09375,0.16406,0.16406,0.17969,0.27344,0.015625,0.10937,0.11719,0.22656-0.03125,0.22656-0.10937,0,0.015625,0.21875,0.03125,0.25781,0.085937,0.15625,0.22656,0.21875,0.38281,0.14062,0,0.0625-0.023438,0.23438-0.10938,0.25-0.0783,0.0156-0.2267-0.1485-0.1954-0.2344-0.0079,0.0312-0.0313,0.0547-0.0547,0.0703-0.0782-0.0937-0.211-0.1406-0.2813-0.2344-0.0156-0.0234-0.2265-0.3437-0.1797-0.3593-0.1093,0.0468-0.3281-0.0313-0.4297-0.086-0.164-0.0859-0.1875-0.3125-0.3906-0.2812-0.1406,0.0234-0.1797,0.0781-0.3437,0.0156-0.1094-0.0391-0.2032-0.1172-0.3125-0.1719-0.125-0.0703-0.3438-0.1406-0.3907-0.2969-0.0468-0.1249-0.0312-0.2734-0.1015-0.3906-0.0469-0.0781-0.1875-0.2344-0.2891-0.2344,0.09375,0-0.085937-0.23438-0.10938-0.25781-0.085937-0.10156-0.39844-0.375-0.33594-0.53125,0.015625-0.023437-0.15625-0.085937-0.1875-0.09375,0.03125,0.078125,0.039063,0.16406,0.078125,0.23438,0.039062,0.078125,0.085937,0.14844,0.13281,0.22656,0.085937,0.14062,0.20312,0.3125,0.1875,0.48438-0.1015,0.0312-0.0703-0.1172-0.1015-0.1797-0.0547-0.1016-0.2031-0.1016-0.2422-0.211,0.0156-0.0078,0.0234-0.0078,0.0391-0.0156,0.0078-0.1328-0.1875-0.2422-0.1563-0.3359-0.1094-0.086-0.1094-0.25-0.1875-0.3594-0.0703-0.1016-0.1875-0.1485-0.2891-0.2188-0.039-0.0234-0.3203-0.3828-0.2187-0.4062-0.1563,0.039-0.2344-0.3281-0.2109-0.4219l-0.015625-0.00781c0.03125-0.09375-0.023437-0.57812,0.10156-0.58594-0.085937,0.00781-0.10938-0.20312-0.085937-0.24219,0.015625-0.03125,0.13281,0.085937,0.14062,0.10156,0.046875-0.023437,0.09375-0.085938,0.078125-0.14062-0.0235-0.0626-0.1095-0.1173-0.1642-0.1642-0.0234-0.0156-0.3359-0.2187-0.3437-0.2109,0.0312-0.0547,0.0234-0.1094-0.0234-0.1484-0.1485,0.1172-0.0704-0.1094-0.1485-0.1328-0.03125-0.00781-0.0625-0.03125-0.09375-0.0625,0.45312-0.71875,1.0859-1.3203,1.8359-1.7344,0.046875-0.00781,0.10938-0.00781,0.17188-0.00781,0.1407,0.0156,0.2188,0.1328,0.3204,0.2031,0.0156-0.0391-0.0156-0.1016-0.0391-0.1406,0.023437-0.0625,0.11719-0.078125,0.17188-0.09375,0.070312-0.00781,0.17188-0.023437,0.23438,0.00781-0.046875-0.070312-0.10156-0.13281-0.15625-0.19531-0.00781,0.00781-0.03125,0.023437-0.039063,0.039063-0.085937-0.070312-0.25,0.023437-0.32812,0.054687-0.0625,0.03125-0.11719,0.070312-0.17969,0.09375-0.039063,0.015625-0.0625,0.015625-0.09375,0.00781,0.23437-0.125,0.47656-0.23438,0.73438-0.32031,0.046875,0.03125,0.09375,0.085938,0.16406,0.14062-0.046875-0.039063-0.046875,0.14062-0.03125,0.17188,0.085937,0.11719,0.27344,0.039063,0.39062,0.039063-0.00781,0,0.34375,0.046875,0.27344-0.039063,0.054687,0.078125,0.054687,0.19531,0.125,0.26562,0.070312-0.070312-0.03125-0.14844,0.015625-0.21875,0.015625-0.03125,0.15625-0.070312,0.20312-0.09375,0.054687-0.039063-0.039063-0.09375-0.0625-0.10938-0.078125-0.046875-0.38281-0.070313-0.23438-0.25,0.054687-0.0625,0.25-0.03125,0.3125,0.00781,0.085937,0.046875,0.17969,0.13281,0.0625,0.21094,0.054687,0.00781,0.3125,0.078125,0.27344,0.17969,0.023437-0.046875,0.0625-0.11719,0.125-0.11719,0.070312,0.00781,0.085937,0.17188,0.11719,0.21094,0.10937,0.19531,0.29688-0.19531,0.32812-0.17969-0.14062-0.054687,0.125-0.125,0.19531-0.10156,0.054687,0.023437,0.14062,0.21094,0.039063,0.20312,0.085937,0.078125,0.09375,0.25-0.0625,0.24219-0.1093-0.0076-0.2343-0.156-0.3359-0.0388-0.0703,0.0781-0.1015,0.1953-0.1719,0.2656-0.1093,0.1094-0.2578,0.1015-0.3906,0.0859,0.054687,0.00781-0.11719,0.1875-0.13281,0.21875-0.046875,0.054687-0.078125,0.11719-0.09375,0.17969-0.015625,0.078125-1E-7,0.16406-0.039063,0.24219,0.13281-0.039063,0.20312,0.20312,0.14844,0.21094,0.16406-0.023437,0.29688-0.023437,0.45312,0.03125,0.10937,0.039063,0.27344,0.085938,0.32031,0.20312,0.03125-0.046875,0.17969-0.023437,0.22656-0.00781,0.09375,0.046875,0.10156,0.14844,0.125,0.23438,0.03125,0.11719,0.13281,0.3125,0.26562,0.25,0.02344-0.015625,0.19531-0.09375,0.13281-0.14062-0.0625-0.054687-0.13281-0.19531-0.07031-0.27344,0.0625-0.085937,0.21094-0.10938,0.25-0.21875,0.0625-0.17969-0.1875-0.15625-0.1875-0.28906,0-0.078125,0.10156-0.10156,0.09375-0.19531,0-0.078125-0.11719-0.23438-0.02344-0.28906,0.07813-0.046875,0.45312,0.03125,0.52344,0.078125,0.07031,0.046875,0.28906,0.10938,0.30469,0.17969h-0.03906c0.0625,0.054687,0.11719,0.17188,0.0078,0.20312,0.07031-0.015625,0.27344,0.0625,0.13281,0.10938,0.04687-0.023437,0.08594-0.00781,0.13281-0.039063,0.05469-0.03125,0.08594-0.085937,0.15625-0.046875,0.01563,0.00781,0.10156-0.16406,0.14844-0.15625,0.07031,0.00781,0.08594,0.10938,0.11719,0.15625,0.03125,0.070312,0.11719,0.09375,0.14844,0.16406,0.05469,0.13281,0.03125,0.25781,0.21094,0.30469,0.05469,0.015625,0.20312-0.070312,0.19531,0.046875,0.03125-0.03125,0.04687-0.054687,0.04687-0.0625,0.0078,0.10937,0.05469,0.23438,0.1875,0.21875,0,0,0,0.14844-0.01563,0.17188-0.04687,0.070312-0.16406,0.054687-0.23438,0.09375-0.02344,0.00781-0.21094,0.17188-0.1875,0.19531-0.10156-0.11719-0.26562-0.11719-0.39844-0.085937-0.14062,0.023437-0.27344,0.039063-0.40625,0.09375-0.0625,0.03125-0.125,0.0625-0.17188,0.11719-0.02344,0.03125-0.0625,0.17188-0.10156,0.17969,0.07813-0.015625,0.11719-0.10156,0.17969-0.14844m-1.2748,6.8515c-0.00781-0.03906-0.015625-0.11719-0.015625-0.125-0.00781-0.125,0.125-0.21094,0.11719-0.32812-0.085937-0.02344-0.10938-0.10938-0.09375-0.20312,0.015625-0.13281,0.13281-0.22656,0.22656-0.3125,0.09375-0.085937,0.11719-0.26563,0.09375-0.375-0.03906-0.1875-0.03906-0.38281-0.07031-0.57031,0.0078,0.046875,0.14062,0.03125,0.16406,0.09375,0.03125-0.054687,0.04687-0.125,0.08594-0.17969,0.03125-0.046875,0.08594-0.0625,0.13281-0.10156,0.07813-0.046875,0.24219-0.22656,0.33594-0.11719,0.07813,0.09375-0.11719,0.19531-0.01563,0.28125,0.03125-0.0625,0-0.15625,0.0625-0.21875,0.125-0.14062,0.21094,0.015625,0.33594,0.054687,0.13281,0.039063,0.17969,0.085938,0.28125,0.17188-0.03125-0.03125,0.125-0.085937,0.14062-0.09375,0.14844-0.03125,0.21094,0.054688,0.3125,0.13281,0.10938,0.078125,0.28125,0.13281,0.26562,0.28906,0.07813,0.015625,0.125,0.039063,0.1875,0.0625,0.0625,0.03125,0.14844,0.015625,0.19531,0.0625-0.71875,0.75781-1.6719,1.2891-2.7422,1.4766"/>
  </g>
 </g>
</svg>
